<svg width="474" height="550" viewBox="0 0 474 550" fill="none" xmlns="http://www.w3.org/2000/svg">
<g filter="url(#filter0_d_61_50)">
<path d="M280.396 -40.6643C265.574 -80.7201 208.92 -80.7201 194.098 -40.6642L160.239 50.8365C135.226 118.435 81.9286 171.732 14.3303 196.745L-77.1703 230.604C-117.226 245.426 -117.226 302.08 -77.1703 316.902L14.3304 350.76C81.9287 375.774 135.226 429.071 160.239 496.669L194.098 588.17C208.92 628.226 265.574 628.226 280.396 588.17L314.254 496.669C339.268 429.071 392.565 375.774 460.163 350.76L551.664 316.902C591.72 302.08 591.72 245.426 551.664 230.604L460.163 196.745C392.565 171.732 339.268 118.435 314.254 50.8364L280.396 -40.6643Z" stroke="#C9E899" stroke-width="0.5" shape-rendering="crispEdges"/>
</g>
<g filter="url(#filter1_d_61_50)">
<path d="M286.325 124.887C282.801 104.011 255.208 98.7855 244.294 116.927L219.228 158.597C200.69 189.413 169.616 210.592 134.156 216.579L86.206 224.675C65.3301 228.2 60.1049 255.793 78.2467 266.706L119.917 291.772C150.732 310.31 171.912 341.385 177.899 376.845L185.994 424.794C189.519 445.67 217.112 450.895 228.025 432.753L253.092 391.084C271.629 360.268 302.704 339.088 338.164 333.101L386.114 325.006C406.989 321.481 412.215 293.888 394.073 282.975L352.403 257.908C321.587 239.371 300.408 208.296 294.421 172.836L286.325 124.887Z" stroke="#C9E899" stroke-width="0.5" shape-rendering="crispEdges"/>
</g>
<g filter="url(#filter2_d_61_50)">
<path d="M338.513 -25.9064C331.531 -67.965 275.994 -78.64 253.917 -42.1669L203.485 41.1502C166.227 102.703 103.938 144.907 32.9591 156.69L-63.1174 172.64C-105.176 179.622 -115.851 235.159 -79.3779 257.236L3.93918 307.668C65.4918 344.926 107.696 407.215 119.479 478.194L135.429 574.27C142.411 616.329 197.948 627.004 220.025 590.531L270.457 507.214C307.715 445.661 370.004 403.457 440.983 391.674L537.059 375.724C579.118 368.742 589.793 313.205 553.32 291.128L470.003 240.696C408.45 203.438 366.246 141.149 354.463 70.1701L338.513 -25.9064Z" stroke="#C9E899" stroke-width="0.5" shape-rendering="crispEdges"/>
</g>
<g filter="url(#filter3_d_61_50)">
<path d="M489.342 82.6815C507.185 43.8764 467.124 3.81511 428.319 21.6584L339.675 62.4184C274.187 92.5308 198.813 92.5308 133.325 62.4183L44.6815 21.6584C5.87643 3.81511 -34.1849 43.8764 -16.3416 82.6815L24.4184 171.325C54.5308 236.813 54.5308 312.187 24.4184 377.675L-16.3416 466.319C-34.1849 505.124 5.87643 545.185 44.6816 527.342L133.325 486.582C198.813 456.469 274.187 456.469 339.675 486.582L428.319 527.342C467.124 545.185 507.185 505.124 489.342 466.318L448.582 377.675C418.469 312.187 418.469 236.813 448.582 171.325L489.342 82.6815Z" stroke="#C9E899" stroke-width="0.5" shape-rendering="crispEdges"/>
</g>
<g filter="url(#filter4_d_61_50)">
<path d="M521.005 133.855C545.852 99.1159 514.073 52.2129 472.597 62.4106L377.853 85.7056C307.859 102.915 233.839 88.6877 175.213 46.7552L95.8567 -10.0042C61.1172 -34.8516 14.2142 -3.07236 24.4119 38.4032L47.7069 133.147C64.9166 203.142 50.6889 277.161 8.7565 335.788L-48.003 415.144C-72.8503 449.883 -41.0711 496.786 0.40457 486.588L95.1485 463.294C165.143 446.084 239.162 460.311 297.789 502.244L377.145 559.003C411.885 583.851 458.788 552.071 448.59 510.596L425.295 415.852C408.085 345.858 422.313 271.838 464.245 213.212L521.005 133.855Z" stroke="#C9E899" stroke-width="0.5" shape-rendering="crispEdges"/>
</g>
<g filter="url(#filter5_d_61_50)">
<path d="M378.352 204.252C390.682 187.013 374.912 163.739 354.331 168.799L307.058 180.422C272.099 189.018 235.129 181.912 205.847 160.968L166.252 132.648C149.014 120.318 125.739 136.088 130.799 156.669L142.423 203.942C151.018 238.901 143.912 275.871 122.968 305.152L94.6481 344.747C82.3181 361.986 98.0879 385.261 118.669 380.201L165.942 368.577C200.901 359.982 237.871 367.088 267.153 388.032L306.748 416.352C323.987 428.682 347.261 412.912 342.201 392.331L330.578 345.058C321.982 310.099 329.088 273.129 350.032 243.847L378.352 204.252Z" stroke="#C9E899" stroke-width="0.5" shape-rendering="crispEdges"/>
</g>
<g filter="url(#filter6_d_61_50)">
<path d="M544.191 196.724C575.779 167.976 554.555 115.446 511.863 116.709L414.34 119.593C342.292 121.723 272.91 92.2718 224.394 38.9652L158.723 -33.1904C129.975 -64.7776 77.4451 -43.5541 78.7075 -0.861916L81.5914 96.6612C83.722 168.709 54.2708 238.091 0.964137 286.607L-71.1914 352.278C-102.779 381.026 -81.5552 433.556 -38.8629 432.294L58.6602 429.41C130.708 427.279 200.09 456.73 248.606 510.037L314.277 582.192C343.025 613.78 395.555 592.556 394.293 549.864L391.409 452.341C389.278 380.293 418.729 310.911 472.036 262.395L544.191 196.724Z" stroke="#C9E899" stroke-width="0.5" shape-rendering="crispEdges"/>
</g>
<g filter="url(#filter7_d_61_50)">
<path d="M553.341 256.202C589.787 233.933 578.861 178.341 536.698 171.523L440.383 155.946C369.229 144.439 306.653 102.421 269.071 40.9144L218.201 -42.34C195.932 -78.7858 140.34 -67.8594 133.521 -25.6963L117.945 70.618C106.438 141.773 64.4193 204.349 2.91314 241.93L-80.3412 292.8C-116.787 315.07 -105.861 370.661 -63.6975 377.48L32.6168 393.056C103.771 404.564 166.348 446.582 203.929 508.088L254.799 591.343C277.068 627.788 332.66 616.862 339.479 574.699L355.055 478.385C366.562 407.23 408.581 344.654 470.087 307.072L553.341 256.202Z" stroke="#C9E899" stroke-width="0.5" shape-rendering="crispEdges"/>
</g>
<g filter="url(#filter8_d_61_50)">
<path d="M509.065 437.074C551.728 439.082 573.865 386.93 542.785 357.635L471.786 290.715C419.334 241.276 391.098 171.39 394.486 99.3908L399.072 1.933C401.079 -40.7307 348.928 -62.8676 319.632 -31.787L252.712 39.2115C203.274 91.6634 133.387 119.899 61.3881 116.511L-36.0698 111.926C-78.7335 109.919 -100.87 162.07 -69.7897 191.365L1.20879 258.285C53.6606 307.724 81.8964 377.61 78.5088 449.61L73.9233 547.067C71.9159 589.731 124.067 611.868 153.363 580.787L220.283 509.789C269.721 457.337 339.607 429.101 411.607 432.489L509.065 437.074Z" stroke="#C9E899" stroke-width="0.5" shape-rendering="crispEdges"/>
</g>
<g filter="url(#filter9_d_61_50)">
<path d="M473.477 485.601C514.995 495.625 546.578 448.59 521.586 413.955L464.495 334.836C422.318 276.385 407.782 202.426 424.699 132.36L447.598 37.5198C457.623 -3.99798 410.587 -35.581 375.952 -10.5888L296.833 46.5016C238.382 88.6786 164.423 103.215 94.3573 86.2979L-0.48303 63.3988C-42.0009 53.3743 -73.5838 100.41 -48.5916 135.045L8.49881 214.164C50.6757 272.614 65.2123 346.574 48.2951 416.64L25.396 511.48C15.3716 552.998 62.4069 584.581 97.0423 559.589L176.161 502.498C234.612 460.321 308.571 445.785 378.637 462.702L473.477 485.601Z" stroke="#C9E899" stroke-width="0.5" shape-rendering="crispEdges"/>
</g>
<defs>
<filter id="filter0_d_61_50" x="-123.462" y="-86.9561" width="721.418" height="721.418" filterUnits="userSpaceOnUse" color-interpolation-filters="sRGB">
<feFlood flood-opacity="0" result="BackgroundImageFix"/>
<feColorMatrix in="SourceAlpha" type="matrix" values="0 0 0 0 0 0 0 0 0 0 0 0 0 0 0 0 0 0 127 0" result="hardAlpha"/>
<feOffset/>
<feGaussianBlur stdDeviation="8"/>
<feComposite in2="hardAlpha" operator="out"/>
<feColorMatrix type="matrix" values="0 0 0 0 0.788235 0 0 0 0 0.909804 0 0 0 0 0.6 0 0 0 0.24 0"/>
<feBlend mode="normal" in2="BackgroundImageFix" result="effect1_dropShadow_61_50"/>
<feBlend mode="normal" in="SourceGraphic" in2="effect1_dropShadow_61_50" result="shape"/>
</filter>
<filter id="filter1_d_61_50" x="50.9314" y="89.612" width="370.457" height="370.457" filterUnits="userSpaceOnUse" color-interpolation-filters="sRGB">
<feFlood flood-opacity="0" result="BackgroundImageFix"/>
<feColorMatrix in="SourceAlpha" type="matrix" values="0 0 0 0 0 0 0 0 0 0 0 0 0 0 0 0 0 0 127 0" result="hardAlpha"/>
<feOffset/>
<feGaussianBlur stdDeviation="8"/>
<feComposite in2="hardAlpha" operator="out"/>
<feColorMatrix type="matrix" values="0 0 0 0 0.788235 0 0 0 0 0.909804 0 0 0 0 0.6 0 0 0 0.24 0"/>
<feBlend mode="normal" in2="BackgroundImageFix" result="effect1_dropShadow_61_50"/>
<feBlend mode="normal" in="SourceGraphic" in2="effect1_dropShadow_61_50" result="shape"/>
</filter>
<filter id="filter2_d_61_50" x="-117.804" y="-80.5926" width="709.549" height="709.549" filterUnits="userSpaceOnUse" color-interpolation-filters="sRGB">
<feFlood flood-opacity="0" result="BackgroundImageFix"/>
<feColorMatrix in="SourceAlpha" type="matrix" values="0 0 0 0 0 0 0 0 0 0 0 0 0 0 0 0 0 0 127 0" result="hardAlpha"/>
<feOffset/>
<feGaussianBlur stdDeviation="8"/>
<feComposite in2="hardAlpha" operator="out"/>
<feColorMatrix type="matrix" values="0 0 0 0 0.788235 0 0 0 0 0.909804 0 0 0 0 0.6 0 0 0 0.24 0"/>
<feBlend mode="normal" in2="BackgroundImageFix" result="effect1_dropShadow_61_50"/>
<feBlend mode="normal" in="SourceGraphic" in2="effect1_dropShadow_61_50" result="shape"/>
</filter>
<filter id="filter3_d_61_50" x="-36.9632" y="1.03682" width="546.926" height="546.926" filterUnits="userSpaceOnUse" color-interpolation-filters="sRGB">
<feFlood flood-opacity="0" result="BackgroundImageFix"/>
<feColorMatrix in="SourceAlpha" type="matrix" values="0 0 0 0 0 0 0 0 0 0 0 0 0 0 0 0 0 0 127 0" result="hardAlpha"/>
<feOffset/>
<feGaussianBlur stdDeviation="8"/>
<feComposite in2="hardAlpha" operator="out"/>
<feColorMatrix type="matrix" values="0 0 0 0 0.788235 0 0 0 0 0.909804 0 0 0 0 0.6 0 0 0 0.24 0"/>
<feBlend mode="normal" in2="BackgroundImageFix" result="effect1_dropShadow_61_50"/>
<feBlend mode="normal" in="SourceGraphic" in2="effect1_dropShadow_61_50" result="shape"/>
</filter>
<filter id="filter4_d_61_50" x="-73.0099" y="-35.0112" width="619.022" height="619.021" filterUnits="userSpaceOnUse" color-interpolation-filters="sRGB">
<feFlood flood-opacity="0" result="BackgroundImageFix"/>
<feColorMatrix in="SourceAlpha" type="matrix" values="0 0 0 0 0 0 0 0 0 0 0 0 0 0 0 0 0 0 127 0" result="hardAlpha"/>
<feOffset/>
<feGaussianBlur stdDeviation="8"/>
<feComposite in2="hardAlpha" operator="out"/>
<feColorMatrix type="matrix" values="0 0 0 0 0.788235 0 0 0 0 0.909804 0 0 0 0 0.6 0 0 0 0.24 0"/>
<feBlend mode="normal" in2="BackgroundImageFix" result="effect1_dropShadow_61_50"/>
<feBlend mode="normal" in="SourceGraphic" in2="effect1_dropShadow_61_50" result="shape"/>
</filter>
<filter id="filter5_d_61_50" x="74.0521" y="112.052" width="324.896" height="324.896" filterUnits="userSpaceOnUse" color-interpolation-filters="sRGB">
<feFlood flood-opacity="0" result="BackgroundImageFix"/>
<feColorMatrix in="SourceAlpha" type="matrix" values="0 0 0 0 0 0 0 0 0 0 0 0 0 0 0 0 0 0 127 0" result="hardAlpha"/>
<feOffset/>
<feGaussianBlur stdDeviation="8"/>
<feComposite in2="hardAlpha" operator="out"/>
<feColorMatrix type="matrix" values="0 0 0 0 0.788235 0 0 0 0 0.909804 0 0 0 0 0.6 0 0 0 0.24 0"/>
<feBlend mode="normal" in2="BackgroundImageFix" result="effect1_dropShadow_61_50"/>
<feBlend mode="normal" in="SourceGraphic" in2="effect1_dropShadow_61_50" result="shape"/>
</filter>
<filter id="filter6_d_61_50" x="-102.587" y="-64.5857" width="678.174" height="678.174" filterUnits="userSpaceOnUse" color-interpolation-filters="sRGB">
<feFlood flood-opacity="0" result="BackgroundImageFix"/>
<feColorMatrix in="SourceAlpha" type="matrix" values="0 0 0 0 0 0 0 0 0 0 0 0 0 0 0 0 0 0 127 0" result="hardAlpha"/>
<feOffset/>
<feGaussianBlur stdDeviation="8"/>
<feComposite in2="hardAlpha" operator="out"/>
<feColorMatrix type="matrix" values="0 0 0 0 0.788235 0 0 0 0 0.909804 0 0 0 0 0.6 0 0 0 0.24 0"/>
<feBlend mode="normal" in2="BackgroundImageFix" result="effect1_dropShadow_61_50"/>
<feBlend mode="normal" in="SourceGraphic" in2="effect1_dropShadow_61_50" result="shape"/>
</filter>
<filter id="filter7_d_61_50" x="-118.644" y="-80.6426" width="710.288" height="710.288" filterUnits="userSpaceOnUse" color-interpolation-filters="sRGB">
<feFlood flood-opacity="0" result="BackgroundImageFix"/>
<feColorMatrix in="SourceAlpha" type="matrix" values="0 0 0 0 0 0 0 0 0 0 0 0 0 0 0 0 0 0 127 0" result="hardAlpha"/>
<feOffset/>
<feGaussianBlur stdDeviation="8"/>
<feComposite in2="hardAlpha" operator="out"/>
<feColorMatrix type="matrix" values="0 0 0 0 0.788235 0 0 0 0 0.909804 0 0 0 0 0.6 0 0 0 0.24 0"/>
<feBlend mode="normal" in2="BackgroundImageFix" result="effect1_dropShadow_61_50"/>
<feBlend mode="normal" in="SourceGraphic" in2="effect1_dropShadow_61_50" result="shape"/>
</filter>
<filter id="filter8_d_61_50" x="-100.603" y="-62.6002" width="674.201" height="674.201" filterUnits="userSpaceOnUse" color-interpolation-filters="sRGB">
<feFlood flood-opacity="0" result="BackgroundImageFix"/>
<feColorMatrix in="SourceAlpha" type="matrix" values="0 0 0 0 0 0 0 0 0 0 0 0 0 0 0 0 0 0 127 0" result="hardAlpha"/>
<feOffset/>
<feGaussianBlur stdDeviation="8"/>
<feComposite in2="hardAlpha" operator="out"/>
<feColorMatrix type="matrix" values="0 0 0 0 0.788235 0 0 0 0 0.909804 0 0 0 0 0.6 0 0 0 0.24 0"/>
<feBlend mode="normal" in2="BackgroundImageFix" result="effect1_dropShadow_61_50"/>
<feBlend mode="normal" in="SourceGraphic" in2="effect1_dropShadow_61_50" result="shape"/>
</filter>
<filter id="filter9_d_61_50" x="-73.71" y="-35.7072" width="620.414" height="620.414" filterUnits="userSpaceOnUse" color-interpolation-filters="sRGB">
<feFlood flood-opacity="0" result="BackgroundImageFix"/>
<feColorMatrix in="SourceAlpha" type="matrix" values="0 0 0 0 0 0 0 0 0 0 0 0 0 0 0 0 0 0 127 0" result="hardAlpha"/>
<feOffset/>
<feGaussianBlur stdDeviation="8"/>
<feComposite in2="hardAlpha" operator="out"/>
<feColorMatrix type="matrix" values="0 0 0 0 0.788235 0 0 0 0 0.909804 0 0 0 0 0.6 0 0 0 0.24 0"/>
<feBlend mode="normal" in2="BackgroundImageFix" result="effect1_dropShadow_61_50"/>
<feBlend mode="normal" in="SourceGraphic" in2="effect1_dropShadow_61_50" result="shape"/>
</filter>
</defs>
</svg>
