<svg width="96" height="41" viewBox="0 0 96 41" fill="none" xmlns="http://www.w3.org/2000/svg">
<path d="M-4.82382e-07 11.0356C1.15707 8.60916 1.38851 7.10709 2.19846 6.64491C5.20685 4.91174 8.2152 2.94748 11.5707 2.02312C20.4802 -0.749958 29.5053 -0.403323 38.5305 1.44539C53.9195 4.56511 67.573 11.4978 80.5322 20.1636C81.9206 21.088 83.3091 21.8968 84.8133 22.8212C84.929 22.8212 85.1605 22.7056 85.5076 22.4745C84.8133 19.9325 84.1191 17.275 83.5405 14.7331C83.3091 13.3465 83.3092 11.7289 83.772 10.3423C84.0034 9.53351 85.2762 8.37809 86.0861 8.37809C87.1275 8.37809 88.4002 9.18689 89.3259 9.88016C89.9044 10.4579 90.0201 11.4978 90.2515 12.4222C91.9872 19.3548 93.9542 26.2875 95.5741 33.3358C96.9626 39.3441 94.9955 41.3083 89.0945 40.9617C82.962 40.6151 76.8295 40.4996 70.8128 40.2685C68.9615 40.1529 66.9944 39.8063 64.9117 39.5752C67.1101 34.7223 67.1101 34.7223 85.8547 32.9891C77.7552 25.7098 68.9615 20.8569 59.9363 16.3507C50.9112 11.8444 41.4232 8.84026 31.3566 7.22264C20.943 5.60501 11.1079 7.56925 -4.82382e-07 11.0356Z" fill="#182800"/>
</svg>
