<svg width="96" height="41" viewBox="0 0 96 41" fill="none" xmlns="http://www.w3.org/2000/svg">
<path d="M96 11.0356C94.8429 8.60916 94.6115 7.10709 93.8015 6.64491C90.7932 4.91174 87.7848 2.94748 84.4293 2.02312C75.5198 -0.749958 66.4947 -0.403323 57.4695 1.44539C42.0805 4.56511 28.427 11.4978 15.4678 20.1636C14.0794 21.088 12.6909 21.8968 11.1867 22.8212C11.071 22.8212 10.8395 22.7056 10.4924 22.4745C11.1867 19.9325 11.8809 17.275 12.4595 14.7331C12.6909 13.3465 12.6908 11.7289 12.228 10.3423C11.9966 9.53351 10.7238 8.37809 9.91388 8.37809C8.87252 8.37809 7.59975 9.18689 6.67409 9.88016C6.09556 10.4579 5.97987 11.4978 5.74845 12.4222C4.01285 19.3548 2.04582 26.2875 0.425919 33.3358C-0.962567 39.3441 1.00446 41.3083 6.90552 40.9617C13.038 40.6151 19.1705 40.4996 25.1872 40.2685C27.0385 40.1529 29.0056 39.8063 31.0883 39.5752C28.8899 34.7223 28.8899 34.7223 10.1453 32.9891C18.2448 25.7098 27.0385 20.8569 36.0637 16.3507C45.0888 11.8444 54.5768 8.84026 64.6434 7.22264C75.057 5.60501 84.8921 7.56925 96 11.0356Z" fill="#182800"/>
</svg>
