<svg width="647" height="484" viewBox="0 0 647 484" fill="none" xmlns="http://www.w3.org/2000/svg">
<path d="M40.2375 0L205.349 426.738C211.691 443.099 218.712 454.46 226.413 460.823C234.566 466.731 241.814 469.912 248.156 470.366V484C234.566 483.091 218.485 482.637 199.913 482.637C181.794 482.182 163.448 481.955 144.876 481.955C124.039 481.955 104.334 482.182 85.7621 482.637C67.1898 482.637 52.468 483.091 41.5964 484V470.366C64.6984 469.457 79.1938 465.594 85.0826 458.777C91.4243 451.506 90.0654 436.282 81.0057 413.104L-34.5044 96.1183L-22.2739 78.3944L-125.554 348.344C-138.237 381.974 -144.579 407.423 -144.579 424.693C-144.126 441.962 -138.463 453.778 -127.592 460.141C-116.72 466.049 -102.225 469.457 -84.1058 470.366V484C-99.0541 483.091 -113.323 482.637 -126.912 482.637C-140.502 482.182 -154.318 481.955 -168.36 481.955C-178.326 481.955 -187.838 482.182 -196.898 482.637C-205.505 482.637 -213.205 483.091 -220 484V470.366C-210.487 468.548 -200.748 462.413 -190.783 451.961C-180.817 441.508 -171.078 423.784 -161.565 398.789L-6.64604 0C0.601654 0.454454 8.30232 0.681681 16.456 0.681681C25.0626 0.681681 32.9898 0.454454 40.2375 0ZM87.8004 287.673V301.307H-114.682L-107.887 287.673H87.8004Z" fill="#E4F4CC"/>
<path d="M439.082 0L604.193 426.738C610.535 443.099 617.556 454.46 625.257 460.823C633.411 466.731 640.658 469.912 647 470.366V484C633.411 483.091 617.33 482.637 598.758 482.637C580.638 482.182 562.293 481.955 543.72 481.955C522.883 481.955 503.179 482.182 484.606 482.637C466.034 482.637 451.312 483.091 440.441 484V470.366C463.543 469.457 478.038 465.594 483.927 458.777C490.269 451.506 488.91 436.282 479.85 413.104L364.34 96.1183L376.57 78.3944L273.291 348.344C260.607 381.974 254.266 407.423 254.266 424.693C254.719 441.962 260.381 453.778 271.252 460.141C282.124 466.049 296.619 469.457 314.739 470.366V484C299.79 483.091 285.521 482.637 271.932 482.637C258.342 482.182 244.527 481.955 230.484 481.955C220.519 481.955 211.006 482.182 201.946 482.637C193.34 482.637 185.639 483.091 178.844 484V470.366C188.357 468.548 198.096 462.413 208.062 451.961C218.027 441.508 227.766 423.784 237.279 398.789L392.198 0C399.446 0.454454 407.147 0.681681 415.3 0.681681C423.907 0.681681 431.834 0.454454 439.082 0ZM486.645 287.673V301.307H284.162L290.957 287.673H486.645Z" fill="#E4F4CC"/>
</svg>
