<svg width="1366" height="698" viewBox="0 0 1366 698" fill="none" xmlns="http://www.w3.org/2000/svg">
<g filter="url(#filter0_d_154_122)">
<path d="M1331.56 76.4693C1343.02 45.5008 1386.82 45.5008 1398.28 76.4693L1424.5 147.324C1443.88 199.684 1485.16 240.968 1537.52 260.343L1608.37 286.561C1639.34 298.021 1639.34 341.822 1608.37 353.281L1537.52 379.5C1485.16 398.875 1443.88 440.158 1424.5 492.519L1398.28 563.374C1386.82 594.342 1343.02 594.342 1331.56 563.374L1305.34 492.519C1285.97 440.158 1244.68 398.875 1192.32 379.5L1121.47 353.281C1090.5 341.822 1090.5 298.021 1121.47 286.561L1192.32 260.343C1244.68 240.968 1285.97 199.684 1305.34 147.324L1331.56 76.4693Z" stroke="#C9E899" stroke-width="0.5" shape-rendering="crispEdges"/>
</g>
<g filter="url(#filter1_d_154_122)">
<path d="M1326.97 204.655C1329.69 188.541 1350.99 184.508 1359.42 198.511L1378.83 230.779C1393.19 254.655 1417.27 271.066 1444.74 275.704L1481.87 281.973C1497.99 284.694 1502.02 305.992 1488.02 314.416L1455.75 333.827C1431.87 348.19 1415.46 372.267 1410.82 399.742L1404.55 436.872C1401.83 452.986 1380.53 457.019 1372.11 443.016L1352.7 410.748C1338.34 386.872 1314.26 370.462 1286.79 365.823L1249.65 359.554C1233.54 356.833 1229.51 335.535 1243.51 327.111L1275.78 307.7C1299.66 293.337 1316.07 269.26 1320.7 241.785L1326.97 204.655Z" stroke="#C9E899" stroke-width="0.5" shape-rendering="crispEdges"/>
</g>
<g filter="url(#filter2_d_154_122)">
<path d="M1286.56 87.8868C1291.96 55.37 1334.9 47.1169 1351.96 75.3153L1391.02 139.833C1419.88 187.511 1468.12 220.201 1523.1 229.328L1597.5 241.679C1630.02 247.077 1638.27 290.015 1610.07 307.083L1545.56 346.136C1497.88 374.995 1465.19 423.243 1456.06 478.223L1443.71 552.62C1438.31 585.137 1395.37 593.39 1378.31 565.192L1339.25 500.675C1310.39 452.997 1262.15 420.306 1207.17 411.179L1132.77 398.828C1100.25 393.43 1092 350.493 1120.2 333.424L1184.71 294.372C1232.39 265.512 1265.08 217.264 1274.21 162.285L1286.56 87.8868Z" stroke="#C9E899" stroke-width="0.5" shape-rendering="crispEdges"/>
</g>
<g filter="url(#filter3_d_154_122)">
<path d="M1169.76 171.94C1155.97 141.938 1186.94 110.966 1216.94 124.761L1285.58 156.324C1336.31 179.649 1394.69 179.649 1445.42 156.324L1514.06 124.761C1544.06 110.966 1575.03 141.939 1561.24 171.94L1529.68 240.582C1506.35 291.308 1506.35 349.692 1529.68 400.418L1561.24 469.06C1575.03 499.062 1544.06 530.034 1514.06 516.239L1445.42 484.676C1394.69 461.351 1336.31 461.351 1285.58 484.676L1216.94 516.239C1186.94 530.034 1155.97 499.061 1169.76 469.06L1201.32 400.418C1224.65 349.692 1224.65 291.308 1201.32 240.582L1169.76 171.94Z" stroke="#C9E899" stroke-width="0.5" shape-rendering="crispEdges"/>
</g>
<g filter="url(#filter4_d_154_122)">
<path d="M1145.24 211.558C1126.03 184.699 1150.6 148.437 1182.66 156.321L1256.03 174.36C1310.25 187.691 1367.58 176.67 1412.99 144.19L1474.44 100.237C1501.3 81.0271 1537.56 105.597 1529.68 137.663L1511.64 211.029C1498.31 265.245 1509.33 322.58 1541.81 367.991L1585.76 429.442C1604.97 456.3 1580.4 492.562 1548.34 484.678L1474.97 466.639C1420.75 453.309 1363.42 464.329 1318.01 496.81L1256.56 540.762C1229.7 559.972 1193.44 535.403 1201.32 503.336L1219.36 429.971C1232.69 375.754 1221.67 318.419 1189.19 273.008L1145.24 211.558Z" stroke="#C9E899" stroke-width="0.5" shape-rendering="crispEdges"/>
</g>
<g filter="url(#filter5_d_154_122)">
<path d="M1255.7 266.07C1246.18 252.764 1258.36 234.798 1274.24 238.704L1310.85 247.705C1337.94 254.365 1366.58 248.859 1389.27 232.631L1419.93 210.701C1433.24 201.184 1451.2 213.357 1447.3 229.243L1438.29 265.849C1431.64 292.936 1437.14 321.581 1453.37 344.269L1475.3 374.93C1484.82 388.236 1472.64 406.201 1456.76 402.295L1420.15 393.295C1393.06 386.635 1364.42 392.141 1341.73 408.368L1311.07 430.298C1297.76 439.816 1279.8 427.643 1283.7 411.757L1292.7 375.151C1299.36 348.064 1293.86 319.419 1277.63 296.731L1255.7 266.07Z" stroke="#C9E899" stroke-width="0.5" shape-rendering="crispEdges"/>
</g>
<g filter="url(#filter6_d_154_122)">
<path d="M1127.27 260.232C1102.85 238.006 1119.26 197.393 1152.27 198.369L1227.79 200.602C1283.59 202.253 1337.34 179.44 1374.92 138.149L1425.77 82.2751C1448 57.854 1488.61 74.2626 1487.63 107.269L1485.4 182.787C1483.75 238.594 1506.56 292.337 1547.85 329.917L1603.73 380.77C1628.15 402.996 1611.74 443.609 1578.73 442.632L1503.21 440.399C1447.41 438.749 1393.66 461.562 1356.08 502.852L1305.23 558.726C1283 583.148 1242.39 566.739 1243.37 533.732L1245.6 458.214C1247.25 402.407 1224.44 348.664 1183.15 311.085L1127.27 260.232Z" stroke="#C9E899" stroke-width="0.5" shape-rendering="crispEdges"/>
</g>
<g filter="url(#filter7_d_154_122)">
<path d="M1120.18 306.283C1092 289.066 1100.45 246.086 1133.05 240.814L1207.63 228.753C1262.75 219.839 1311.22 187.292 1340.33 139.65L1379.72 75.1816C1396.94 47.0041 1439.92 55.4516 1445.19 88.0494L1457.25 162.631C1466.16 217.747 1498.71 266.217 1546.35 295.328L1610.82 334.719C1639 351.936 1630.55 394.916 1597.95 400.188L1523.37 412.25C1468.25 421.163 1419.78 453.71 1390.67 501.352L1351.28 565.821C1334.06 593.998 1291.08 585.55 1285.81 552.953L1273.75 478.371C1264.84 423.256 1232.29 374.785 1184.65 345.675L1120.18 306.283Z" stroke="#C9E899" stroke-width="0.5" shape-rendering="crispEdges"/>
</g>
<g filter="url(#filter8_d_154_122)">
<path d="M1154.43 446.335C1121.45 447.887 1104.33 407.567 1128.36 384.917L1183.34 333.097C1223.97 294.803 1245.84 240.67 1243.22 184.9L1239.67 109.433C1238.12 76.4479 1278.44 59.3331 1301.08 83.3626L1352.9 138.341C1391.2 178.969 1445.33 200.84 1501.1 198.216L1576.57 194.666C1609.55 193.114 1626.67 233.434 1602.64 256.083L1547.66 307.903C1507.03 346.198 1485.16 400.331 1487.79 456.1L1491.34 531.568C1492.89 564.552 1452.57 581.667 1429.92 557.638L1378.1 502.659C1339.8 462.031 1285.67 440.16 1229.9 442.784L1154.43 446.335Z" stroke="#C9E899" stroke-width="0.5" shape-rendering="crispEdges"/>
</g>
<g filter="url(#filter9_d_154_122)">
<path d="M1181.98 483.913C1149.88 491.663 1125.46 455.299 1144.79 428.521L1189 367.255C1221.67 321.98 1232.93 264.691 1219.82 210.42L1202.09 136.979C1194.34 104.88 1230.7 80.4624 1257.48 99.7847L1318.75 143.993C1364.02 176.663 1421.31 187.923 1475.58 174.819L1549.02 157.087C1581.12 149.337 1605.54 185.701 1586.22 212.479L1542.01 273.745C1509.34 319.02 1498.08 376.308 1511.18 430.58L1528.92 504.021C1536.67 536.12 1500.3 560.538 1473.52 541.215L1412.26 497.007C1366.98 464.337 1309.69 453.077 1255.42 466.181L1181.98 483.913Z" stroke="#C9E899" stroke-width="0.5" shape-rendering="crispEdges"/>
</g>
<g filter="url(#filter10_d_154_122)">
<path d="M34.4382 76.4693C22.9789 45.5008 -20.8224 45.5008 -32.2818 76.4693L-58.5003 147.324C-77.8755 199.684 -119.159 240.968 -171.52 260.343L-242.374 286.561C-273.342 298.021 -273.342 341.822 -242.374 353.281L-171.519 379.5C-119.159 398.875 -77.8755 440.158 -58.5003 492.519L-32.2818 563.374C-20.8224 594.342 22.9789 594.342 34.4383 563.374L60.6568 492.519C80.032 440.158 121.315 398.875 173.676 379.5L244.53 353.281C275.499 341.822 275.499 298.021 244.53 286.561L173.676 260.343C121.315 240.968 80.032 199.684 60.6567 147.324L34.4382 76.4693Z" stroke="#C9E899" stroke-width="0.5" shape-rendering="crispEdges"/>
</g>
<g filter="url(#filter11_d_154_122)">
<path d="M39.0269 204.655C36.3063 188.541 15.0077 184.508 6.58389 198.511L-12.8266 230.779C-27.1897 254.655 -51.267 271.066 -78.742 275.704L-115.872 281.973C-131.986 284.694 -136.019 305.992 -122.016 314.416L-89.7485 333.827C-65.8718 348.19 -49.4616 372.267 -44.8228 399.742L-38.5539 436.872C-35.8334 452.986 -14.5347 457.019 -6.1109 443.016L13.2996 410.748C27.6627 386.872 51.74 370.462 79.215 365.823L116.345 359.554C132.459 356.833 136.492 335.535 122.489 327.111L90.2214 307.7C66.3448 293.337 49.9345 269.26 45.2958 241.785L39.0269 204.655Z" stroke="#C9E899" stroke-width="0.5" shape-rendering="crispEdges"/>
</g>
<g filter="url(#filter12_d_154_122)">
<path d="M79.439 87.8868C74.0408 55.37 31.1036 47.1169 14.0351 75.3153L-25.0173 139.833C-53.8767 187.511 -102.125 220.201 -157.104 229.328L-231.502 241.679C-264.019 247.077 -272.272 290.015 -244.074 307.083L-179.556 346.136C-131.878 374.995 -99.1878 423.243 -90.0606 478.223L-77.7097 552.62C-72.3115 585.137 -29.3743 593.39 -12.3058 565.192L26.7466 500.675C55.606 452.997 103.854 420.306 158.834 411.179L233.231 398.828C265.748 393.43 274.001 350.493 245.803 333.424L181.286 294.372C133.608 265.512 100.917 217.264 91.7899 162.285L79.439 87.8868Z" stroke="#C9E899" stroke-width="0.5" shape-rendering="crispEdges"/>
</g>
<g filter="url(#filter13_d_154_122)">
<path d="M196.239 171.94C210.034 141.938 179.061 110.966 149.06 124.761L80.4179 156.324C29.692 179.649 -28.6922 179.649 -79.4181 156.324L-148.06 124.761C-178.062 110.966 -209.034 141.939 -195.239 171.94L-163.676 240.582C-140.351 291.308 -140.351 349.692 -163.676 400.418L-195.239 469.06C-209.034 499.062 -178.062 530.034 -148.06 516.239L-79.418 484.676C-28.6921 461.351 29.6921 461.351 80.418 484.676L149.06 516.239C179.061 530.034 210.034 499.061 196.239 469.06L164.676 400.418C141.351 349.692 141.351 291.308 164.676 240.582L196.239 171.94Z" stroke="#C9E899" stroke-width="0.5" shape-rendering="crispEdges"/>
</g>
<g filter="url(#filter14_d_154_122)">
<path d="M220.763 211.558C239.973 184.699 215.404 148.437 183.337 156.321L109.972 174.36C55.7548 187.691 -1.57985 176.67 -46.9911 144.19L-108.441 100.237C-135.3 81.0271 -171.562 105.597 -163.678 137.663L-145.639 211.029C-132.309 265.245 -143.329 322.58 -175.809 367.991L-219.762 429.442C-238.972 456.3 -214.402 492.562 -182.336 484.678L-108.97 466.639C-54.7536 453.309 2.58103 464.329 47.9923 496.81L109.443 540.762C136.301 559.972 172.563 535.403 164.679 503.336L146.64 429.971C133.31 375.754 144.33 318.419 176.811 273.008L220.763 211.558Z" stroke="#C9E899" stroke-width="0.5" shape-rendering="crispEdges"/>
</g>
<g filter="url(#filter15_d_154_122)">
<path d="M110.299 266.07C119.816 252.764 107.643 234.798 91.7569 238.704L55.1508 247.705C28.0637 254.365 -0.581102 248.859 -23.2689 232.631L-53.9297 210.701C-67.2361 201.184 -85.2015 213.357 -81.2954 229.243L-72.295 265.849C-65.635 292.936 -71.141 321.581 -87.3684 344.269L-109.298 374.93C-118.816 388.236 -106.643 406.201 -90.7567 402.295L-54.1506 393.295C-27.0636 386.635 1.58125 392.141 24.2691 408.368L54.9298 430.298C68.2362 439.816 86.2017 427.643 82.2956 411.757L73.2951 375.151C66.6352 348.064 72.1411 319.419 88.3685 296.731L110.299 266.07Z" stroke="#C9E899" stroke-width="0.5" shape-rendering="crispEdges"/>
</g>
<g filter="url(#filter16_d_154_122)">
<path d="M238.726 260.232C263.147 238.006 246.738 197.393 213.731 198.369L138.214 200.602C82.4064 202.253 28.6635 179.44 -8.91625 138.149L-59.7689 82.2751C-81.9952 57.854 -122.608 74.2626 -121.632 107.269L-119.399 182.787C-117.748 238.594 -140.561 292.337 -181.851 329.917L-237.726 380.77C-262.147 402.996 -245.738 443.609 -212.731 442.632L-137.214 440.399C-81.4065 438.749 -27.6636 461.562 9.91617 502.852L60.7688 558.726C82.9952 583.148 123.608 566.739 122.632 533.732L120.398 458.214C118.748 402.407 141.561 348.664 182.851 311.085L238.726 260.232Z" stroke="#C9E899" stroke-width="0.5" shape-rendering="crispEdges"/>
</g>
<g filter="url(#filter17_d_154_122)">
<path d="M245.819 306.283C273.997 289.066 265.549 246.086 232.952 240.814L158.37 228.753C103.254 219.839 54.7837 187.292 25.6735 139.65L-13.7183 75.1816C-30.9353 47.0041 -73.915 55.4516 -79.1869 88.0494L-91.2485 162.631C-100.162 217.747 -132.709 266.217 -180.351 295.328L-244.819 334.719C-272.997 351.936 -264.549 394.916 -231.952 400.188L-157.37 412.25C-102.254 421.163 -53.7837 453.71 -24.6735 501.352L14.7182 565.821C31.9353 593.998 74.915 585.55 80.1868 552.953L92.2485 478.371C101.162 423.256 133.709 374.785 181.351 345.675L245.819 306.283Z" stroke="#C9E899" stroke-width="0.5" shape-rendering="crispEdges"/>
</g>
<g filter="url(#filter18_d_154_122)">
<path d="M211.565 446.335C244.55 447.887 261.665 407.567 237.635 384.917L182.657 333.097C142.029 294.803 120.158 240.67 122.782 184.9L126.332 109.433C127.884 76.4479 87.5644 59.3331 64.9152 83.3626L13.0951 138.341C-25.1995 178.969 -79.3324 200.84 -135.102 198.216L-210.57 194.666C-243.554 193.114 -260.669 233.434 -236.64 256.083L-181.661 307.903C-141.033 346.198 -119.162 400.331 -121.786 456.1L-125.336 531.568C-126.888 564.552 -86.5685 581.667 -63.9193 557.638L-12.0992 502.659C26.1954 462.031 80.3284 440.16 136.098 442.784L211.565 446.335Z" stroke="#C9E899" stroke-width="0.5" shape-rendering="crispEdges"/>
</g>
<g filter="url(#filter19_d_154_122)">
<path d="M184.019 483.913C216.117 491.663 240.535 455.299 221.213 428.521L177.004 367.255C144.335 321.98 133.075 264.691 146.179 210.42L163.911 136.979C171.661 104.88 135.297 80.4624 108.519 99.7847L47.2525 143.993C1.97733 176.663 -55.3108 187.923 -109.583 174.819L-183.023 157.087C-215.122 149.337 -239.54 185.701 -220.218 212.479L-176.009 273.745C-143.339 319.02 -132.08 376.308 -145.183 430.58L-162.916 504.021C-170.666 536.12 -134.301 560.538 -107.523 541.215L-46.2572 497.007C-0.981957 464.337 56.3062 453.077 110.578 466.181L184.019 483.913Z" stroke="#C9E899" stroke-width="0.5" shape-rendering="crispEdges"/>
</g>
<defs>
<filter id="filter0_d_154_122" x="1081.99" y="36.9929" width="565.857" height="565.857" filterUnits="userSpaceOnUse" color-interpolation-filters="sRGB">
<feFlood flood-opacity="0" result="BackgroundImageFix"/>
<feColorMatrix in="SourceAlpha" type="matrix" values="0 0 0 0 0 0 0 0 0 0 0 0 0 0 0 0 0 0 127 0" result="hardAlpha"/>
<feOffset/>
<feGaussianBlur stdDeviation="8"/>
<feComposite in2="hardAlpha" operator="out"/>
<feColorMatrix type="matrix" values="0 0 0 0 0.788235 0 0 0 0 0.909804 0 0 0 0 0.6 0 0 0 0.24 0"/>
<feBlend mode="normal" in2="BackgroundImageFix" result="effect1_dropShadow_154_122"/>
<feBlend mode="normal" in="SourceGraphic" in2="effect1_dropShadow_154_122" result="shape"/>
</filter>
<filter id="filter1_d_154_122" x="1218.72" y="173.72" width="294.087" height="294.087" filterUnits="userSpaceOnUse" color-interpolation-filters="sRGB">
<feFlood flood-opacity="0" result="BackgroundImageFix"/>
<feColorMatrix in="SourceAlpha" type="matrix" values="0 0 0 0 0 0 0 0 0 0 0 0 0 0 0 0 0 0 127 0" result="hardAlpha"/>
<feOffset/>
<feGaussianBlur stdDeviation="8"/>
<feComposite in2="hardAlpha" operator="out"/>
<feColorMatrix type="matrix" values="0 0 0 0 0.788235 0 0 0 0 0.909804 0 0 0 0 0.6 0 0 0 0.24 0"/>
<feBlend mode="normal" in2="BackgroundImageFix" result="effect1_dropShadow_154_122"/>
<feBlend mode="normal" in="SourceGraphic" in2="effect1_dropShadow_154_122" result="shape"/>
</filter>
<filter id="filter2_d_154_122" x="1086.8" y="41.9205" width="556.666" height="556.666" filterUnits="userSpaceOnUse" color-interpolation-filters="sRGB">
<feFlood flood-opacity="0" result="BackgroundImageFix"/>
<feColorMatrix in="SourceAlpha" type="matrix" values="0 0 0 0 0 0 0 0 0 0 0 0 0 0 0 0 0 0 127 0" result="hardAlpha"/>
<feOffset/>
<feGaussianBlur stdDeviation="8"/>
<feComposite in2="hardAlpha" operator="out"/>
<feColorMatrix type="matrix" values="0 0 0 0 0.788235 0 0 0 0 0.909804 0 0 0 0 0.6 0 0 0 0.24 0"/>
<feBlend mode="normal" in2="BackgroundImageFix" result="effect1_dropShadow_154_122"/>
<feBlend mode="normal" in="SourceGraphic" in2="effect1_dropShadow_154_122" result="shape"/>
</filter>
<filter id="filter3_d_154_122" x="1150.13" y="105.131" width="430.738" height="430.738" filterUnits="userSpaceOnUse" color-interpolation-filters="sRGB">
<feFlood flood-opacity="0" result="BackgroundImageFix"/>
<feColorMatrix in="SourceAlpha" type="matrix" values="0 0 0 0 0 0 0 0 0 0 0 0 0 0 0 0 0 0 127 0" result="hardAlpha"/>
<feOffset/>
<feGaussianBlur stdDeviation="8"/>
<feComposite in2="hardAlpha" operator="out"/>
<feColorMatrix type="matrix" values="0 0 0 0 0.788235 0 0 0 0 0.909804 0 0 0 0 0.6 0 0 0 0.24 0"/>
<feBlend mode="normal" in2="BackgroundImageFix" result="effect1_dropShadow_154_122"/>
<feBlend mode="normal" in="SourceGraphic" in2="effect1_dropShadow_154_122" result="shape"/>
</filter>
<filter id="filter4_d_154_122" x="1122.22" y="77.2169" width="486.565" height="486.565" filterUnits="userSpaceOnUse" color-interpolation-filters="sRGB">
<feFlood flood-opacity="0" result="BackgroundImageFix"/>
<feColorMatrix in="SourceAlpha" type="matrix" values="0 0 0 0 0 0 0 0 0 0 0 0 0 0 0 0 0 0 127 0" result="hardAlpha"/>
<feOffset/>
<feGaussianBlur stdDeviation="8"/>
<feComposite in2="hardAlpha" operator="out"/>
<feColorMatrix type="matrix" values="0 0 0 0 0.788235 0 0 0 0 0.909804 0 0 0 0 0.6 0 0 0 0.24 0"/>
<feBlend mode="normal" in2="BackgroundImageFix" result="effect1_dropShadow_154_122"/>
<feBlend mode="normal" in="SourceGraphic" in2="effect1_dropShadow_154_122" result="shape"/>
</filter>
<filter id="filter5_d_154_122" x="1236.1" y="191.097" width="258.807" height="258.807" filterUnits="userSpaceOnUse" color-interpolation-filters="sRGB">
<feFlood flood-opacity="0" result="BackgroundImageFix"/>
<feColorMatrix in="SourceAlpha" type="matrix" values="0 0 0 0 0 0 0 0 0 0 0 0 0 0 0 0 0 0 127 0" result="hardAlpha"/>
<feOffset/>
<feGaussianBlur stdDeviation="8"/>
<feComposite in2="hardAlpha" operator="out"/>
<feColorMatrix type="matrix" values="0 0 0 0 0.788235 0 0 0 0 0.909804 0 0 0 0 0.6 0 0 0 0.24 0"/>
<feBlend mode="normal" in2="BackgroundImageFix" result="effect1_dropShadow_154_122"/>
<feBlend mode="normal" in="SourceGraphic" in2="effect1_dropShadow_154_122" result="shape"/>
</filter>
<filter id="filter6_d_154_122" x="1099.31" y="54.3156" width="532.37" height="532.37" filterUnits="userSpaceOnUse" color-interpolation-filters="sRGB">
<feFlood flood-opacity="0" result="BackgroundImageFix"/>
<feColorMatrix in="SourceAlpha" type="matrix" values="0 0 0 0 0 0 0 0 0 0 0 0 0 0 0 0 0 0 127 0" result="hardAlpha"/>
<feOffset/>
<feGaussianBlur stdDeviation="8"/>
<feComposite in2="hardAlpha" operator="out"/>
<feColorMatrix type="matrix" values="0 0 0 0 0.788235 0 0 0 0 0.909804 0 0 0 0 0.6 0 0 0 0.24 0"/>
<feBlend mode="normal" in2="BackgroundImageFix" result="effect1_dropShadow_154_122"/>
<feBlend mode="normal" in="SourceGraphic" in2="effect1_dropShadow_154_122" result="shape"/>
</filter>
<filter id="filter7_d_154_122" x="1086.88" y="41.8818" width="557.238" height="557.238" filterUnits="userSpaceOnUse" color-interpolation-filters="sRGB">
<feFlood flood-opacity="0" result="BackgroundImageFix"/>
<feColorMatrix in="SourceAlpha" type="matrix" values="0 0 0 0 0 0 0 0 0 0 0 0 0 0 0 0 0 0 127 0" result="hardAlpha"/>
<feOffset/>
<feGaussianBlur stdDeviation="8"/>
<feComposite in2="hardAlpha" operator="out"/>
<feColorMatrix type="matrix" values="0 0 0 0 0.788235 0 0 0 0 0.909804 0 0 0 0 0.6 0 0 0 0.24 0"/>
<feBlend mode="normal" in2="BackgroundImageFix" result="effect1_dropShadow_154_122"/>
<feBlend mode="normal" in="SourceGraphic" in2="effect1_dropShadow_154_122" result="shape"/>
</filter>
<filter id="filter8_d_154_122" x="1100.86" y="55.8531" width="529.294" height="529.294" filterUnits="userSpaceOnUse" color-interpolation-filters="sRGB">
<feFlood flood-opacity="0" result="BackgroundImageFix"/>
<feColorMatrix in="SourceAlpha" type="matrix" values="0 0 0 0 0 0 0 0 0 0 0 0 0 0 0 0 0 0 127 0" result="hardAlpha"/>
<feOffset/>
<feGaussianBlur stdDeviation="8"/>
<feComposite in2="hardAlpha" operator="out"/>
<feColorMatrix type="matrix" values="0 0 0 0 0.788235 0 0 0 0 0.909804 0 0 0 0 0.6 0 0 0 0.24 0"/>
<feBlend mode="normal" in2="BackgroundImageFix" result="effect1_dropShadow_154_122"/>
<feBlend mode="normal" in="SourceGraphic" in2="effect1_dropShadow_154_122" result="shape"/>
</filter>
<filter id="filter9_d_154_122" x="1121.68" y="76.678" width="487.644" height="487.644" filterUnits="userSpaceOnUse" color-interpolation-filters="sRGB">
<feFlood flood-opacity="0" result="BackgroundImageFix"/>
<feColorMatrix in="SourceAlpha" type="matrix" values="0 0 0 0 0 0 0 0 0 0 0 0 0 0 0 0 0 0 127 0" result="hardAlpha"/>
<feOffset/>
<feGaussianBlur stdDeviation="8"/>
<feComposite in2="hardAlpha" operator="out"/>
<feColorMatrix type="matrix" values="0 0 0 0 0.788235 0 0 0 0 0.909804 0 0 0 0 0.6 0 0 0 0.24 0"/>
<feBlend mode="normal" in2="BackgroundImageFix" result="effect1_dropShadow_154_122"/>
<feBlend mode="normal" in="SourceGraphic" in2="effect1_dropShadow_154_122" result="shape"/>
</filter>
<filter id="filter10_d_154_122" x="-281.85" y="36.9929" width="565.857" height="565.857" filterUnits="userSpaceOnUse" color-interpolation-filters="sRGB">
<feFlood flood-opacity="0" result="BackgroundImageFix"/>
<feColorMatrix in="SourceAlpha" type="matrix" values="0 0 0 0 0 0 0 0 0 0 0 0 0 0 0 0 0 0 127 0" result="hardAlpha"/>
<feOffset/>
<feGaussianBlur stdDeviation="8"/>
<feComposite in2="hardAlpha" operator="out"/>
<feColorMatrix type="matrix" values="0 0 0 0 0.788235 0 0 0 0 0.909804 0 0 0 0 0.6 0 0 0 0.24 0"/>
<feBlend mode="normal" in2="BackgroundImageFix" result="effect1_dropShadow_154_122"/>
<feBlend mode="normal" in="SourceGraphic" in2="effect1_dropShadow_154_122" result="shape"/>
</filter>
<filter id="filter11_d_154_122" x="-146.807" y="173.72" width="294.087" height="294.087" filterUnits="userSpaceOnUse" color-interpolation-filters="sRGB">
<feFlood flood-opacity="0" result="BackgroundImageFix"/>
<feColorMatrix in="SourceAlpha" type="matrix" values="0 0 0 0 0 0 0 0 0 0 0 0 0 0 0 0 0 0 127 0" result="hardAlpha"/>
<feOffset/>
<feGaussianBlur stdDeviation="8"/>
<feComposite in2="hardAlpha" operator="out"/>
<feColorMatrix type="matrix" values="0 0 0 0 0.788235 0 0 0 0 0.909804 0 0 0 0 0.6 0 0 0 0.24 0"/>
<feBlend mode="normal" in2="BackgroundImageFix" result="effect1_dropShadow_154_122"/>
<feBlend mode="normal" in="SourceGraphic" in2="effect1_dropShadow_154_122" result="shape"/>
</filter>
<filter id="filter12_d_154_122" x="-277.468" y="41.9205" width="556.666" height="556.666" filterUnits="userSpaceOnUse" color-interpolation-filters="sRGB">
<feFlood flood-opacity="0" result="BackgroundImageFix"/>
<feColorMatrix in="SourceAlpha" type="matrix" values="0 0 0 0 0 0 0 0 0 0 0 0 0 0 0 0 0 0 127 0" result="hardAlpha"/>
<feOffset/>
<feGaussianBlur stdDeviation="8"/>
<feComposite in2="hardAlpha" operator="out"/>
<feColorMatrix type="matrix" values="0 0 0 0 0.788235 0 0 0 0 0.909804 0 0 0 0 0.6 0 0 0 0.24 0"/>
<feBlend mode="normal" in2="BackgroundImageFix" result="effect1_dropShadow_154_122"/>
<feBlend mode="normal" in="SourceGraphic" in2="effect1_dropShadow_154_122" result="shape"/>
</filter>
<filter id="filter13_d_154_122" x="-214.869" y="105.131" width="430.738" height="430.738" filterUnits="userSpaceOnUse" color-interpolation-filters="sRGB">
<feFlood flood-opacity="0" result="BackgroundImageFix"/>
<feColorMatrix in="SourceAlpha" type="matrix" values="0 0 0 0 0 0 0 0 0 0 0 0 0 0 0 0 0 0 127 0" result="hardAlpha"/>
<feOffset/>
<feGaussianBlur stdDeviation="8"/>
<feComposite in2="hardAlpha" operator="out"/>
<feColorMatrix type="matrix" values="0 0 0 0 0.788235 0 0 0 0 0.909804 0 0 0 0 0.6 0 0 0 0.24 0"/>
<feBlend mode="normal" in2="BackgroundImageFix" result="effect1_dropShadow_154_122"/>
<feBlend mode="normal" in="SourceGraphic" in2="effect1_dropShadow_154_122" result="shape"/>
</filter>
<filter id="filter14_d_154_122" x="-242.782" y="77.2169" width="486.565" height="486.565" filterUnits="userSpaceOnUse" color-interpolation-filters="sRGB">
<feFlood flood-opacity="0" result="BackgroundImageFix"/>
<feColorMatrix in="SourceAlpha" type="matrix" values="0 0 0 0 0 0 0 0 0 0 0 0 0 0 0 0 0 0 127 0" result="hardAlpha"/>
<feOffset/>
<feGaussianBlur stdDeviation="8"/>
<feComposite in2="hardAlpha" operator="out"/>
<feColorMatrix type="matrix" values="0 0 0 0 0.788235 0 0 0 0 0.909804 0 0 0 0 0.6 0 0 0 0.24 0"/>
<feBlend mode="normal" in2="BackgroundImageFix" result="effect1_dropShadow_154_122"/>
<feBlend mode="normal" in="SourceGraphic" in2="effect1_dropShadow_154_122" result="shape"/>
</filter>
<filter id="filter15_d_154_122" x="-128.903" y="191.097" width="258.807" height="258.807" filterUnits="userSpaceOnUse" color-interpolation-filters="sRGB">
<feFlood flood-opacity="0" result="BackgroundImageFix"/>
<feColorMatrix in="SourceAlpha" type="matrix" values="0 0 0 0 0 0 0 0 0 0 0 0 0 0 0 0 0 0 127 0" result="hardAlpha"/>
<feOffset/>
<feGaussianBlur stdDeviation="8"/>
<feComposite in2="hardAlpha" operator="out"/>
<feColorMatrix type="matrix" values="0 0 0 0 0.788235 0 0 0 0 0.909804 0 0 0 0 0.6 0 0 0 0.24 0"/>
<feBlend mode="normal" in2="BackgroundImageFix" result="effect1_dropShadow_154_122"/>
<feBlend mode="normal" in="SourceGraphic" in2="effect1_dropShadow_154_122" result="shape"/>
</filter>
<filter id="filter16_d_154_122" x="-265.685" y="54.3156" width="532.37" height="532.37" filterUnits="userSpaceOnUse" color-interpolation-filters="sRGB">
<feFlood flood-opacity="0" result="BackgroundImageFix"/>
<feColorMatrix in="SourceAlpha" type="matrix" values="0 0 0 0 0 0 0 0 0 0 0 0 0 0 0 0 0 0 127 0" result="hardAlpha"/>
<feOffset/>
<feGaussianBlur stdDeviation="8"/>
<feComposite in2="hardAlpha" operator="out"/>
<feColorMatrix type="matrix" values="0 0 0 0 0.788235 0 0 0 0 0.909804 0 0 0 0 0.6 0 0 0 0.24 0"/>
<feBlend mode="normal" in2="BackgroundImageFix" result="effect1_dropShadow_154_122"/>
<feBlend mode="normal" in="SourceGraphic" in2="effect1_dropShadow_154_122" result="shape"/>
</filter>
<filter id="filter17_d_154_122" x="-278.119" y="41.8818" width="557.238" height="557.238" filterUnits="userSpaceOnUse" color-interpolation-filters="sRGB">
<feFlood flood-opacity="0" result="BackgroundImageFix"/>
<feColorMatrix in="SourceAlpha" type="matrix" values="0 0 0 0 0 0 0 0 0 0 0 0 0 0 0 0 0 0 127 0" result="hardAlpha"/>
<feOffset/>
<feGaussianBlur stdDeviation="8"/>
<feComposite in2="hardAlpha" operator="out"/>
<feColorMatrix type="matrix" values="0 0 0 0 0.788235 0 0 0 0 0.909804 0 0 0 0 0.6 0 0 0 0.24 0"/>
<feBlend mode="normal" in2="BackgroundImageFix" result="effect1_dropShadow_154_122"/>
<feBlend mode="normal" in="SourceGraphic" in2="effect1_dropShadow_154_122" result="shape"/>
</filter>
<filter id="filter18_d_154_122" x="-264.149" y="55.8531" width="529.294" height="529.294" filterUnits="userSpaceOnUse" color-interpolation-filters="sRGB">
<feFlood flood-opacity="0" result="BackgroundImageFix"/>
<feColorMatrix in="SourceAlpha" type="matrix" values="0 0 0 0 0 0 0 0 0 0 0 0 0 0 0 0 0 0 127 0" result="hardAlpha"/>
<feOffset/>
<feGaussianBlur stdDeviation="8"/>
<feComposite in2="hardAlpha" operator="out"/>
<feColorMatrix type="matrix" values="0 0 0 0 0.788235 0 0 0 0 0.909804 0 0 0 0 0.6 0 0 0 0.24 0"/>
<feBlend mode="normal" in2="BackgroundImageFix" result="effect1_dropShadow_154_122"/>
<feBlend mode="normal" in="SourceGraphic" in2="effect1_dropShadow_154_122" result="shape"/>
</filter>
<filter id="filter19_d_154_122" x="-243.324" y="76.678" width="487.644" height="487.644" filterUnits="userSpaceOnUse" color-interpolation-filters="sRGB">
<feFlood flood-opacity="0" result="BackgroundImageFix"/>
<feColorMatrix in="SourceAlpha" type="matrix" values="0 0 0 0 0 0 0 0 0 0 0 0 0 0 0 0 0 0 127 0" result="hardAlpha"/>
<feOffset/>
<feGaussianBlur stdDeviation="8"/>
<feComposite in2="hardAlpha" operator="out"/>
<feColorMatrix type="matrix" values="0 0 0 0 0.788235 0 0 0 0 0.909804 0 0 0 0 0.6 0 0 0 0.24 0"/>
<feBlend mode="normal" in2="BackgroundImageFix" result="effect1_dropShadow_154_122"/>
<feBlend mode="normal" in="SourceGraphic" in2="effect1_dropShadow_154_122" result="shape"/>
</filter>
</defs>
</svg>
