<svg width="40" height="40" viewBox="0 0 40 40" fill="none" xmlns="http://www.w3.org/2000/svg">
<path d="M17.0573 15.4633C18.3669 17.7241 21.6313 17.724 22.9411 15.4631L28.9424 5.10413C30.2556 2.83746 28.6202 -9.34602e-05 26.0007 2.30895e-09L24.524 5.19549e-05C24.0995 6.69319e-05 23.8475 0.50897 24.0311 0.891883C24.3151 1.4842 24.4742 2.14783 24.4742 2.84863C24.4741 5.35086 22.4456 7.37939 19.9434 7.37948C17.4411 7.37957 15.4127 5.35119 15.4128 2.84895C15.4128 2.14849 15.5718 1.48515 15.8557 0.893029C16.0392 0.510122 15.7858 0.000362759 15.361 0.000377763L13.9988 0.000426102C11.3793 0.000519309 9.7437 2.83819 11.0567 5.10477L17.0573 15.4633Z" fill="url(#paint0_radial_27_28)"/>
<path d="M15.4633 17.0573C17.7241 18.3669 17.724 21.6313 15.4631 22.9411L5.10413 28.9424C2.83746 30.2556 -9.34602e-05 28.6202 2.30878e-09 26.0007L5.10619e-05 24.524C6.60389e-05 24.0995 0.50897 23.8475 0.891883 24.0311C1.4842 24.3151 2.14783 24.4742 2.84863 24.4742C5.35086 24.4741 7.37939 22.4456 7.37948 19.9434C7.37957 17.4411 5.35118 15.4127 2.84895 15.4128C2.14849 15.4128 1.48514 15.5718 0.893028 15.8557C0.510121 16.0392 0.000362716 15.7858 0.000377721 15.361L0.000425379 13.9988C0.000518586 11.3793 2.83819 9.7437 5.10477 11.0567L15.4633 17.0573Z" fill="url(#paint1_radial_27_28)"/>
<path d="M24.5367 22.9427C22.2759 21.6331 22.276 18.3687 24.5369 17.0589L34.8959 11.0576C37.1625 9.74443 40.0001 11.3798 40 13.9993L40 15.476C39.9999 15.9005 39.491 16.1525 39.1081 15.9689C38.5158 15.6849 37.8522 15.5258 37.1514 15.5258C34.6491 15.5259 32.6206 17.5544 32.6205 20.0566C32.6204 22.5589 34.6488 24.5873 37.151 24.5872C37.8515 24.5872 38.5149 24.4282 39.107 24.1443C39.4899 23.9608 39.9996 24.2142 39.9996 24.639L39.9996 26.0012C39.9995 28.6207 37.1618 30.2563 34.8952 28.9433L24.5367 22.9427Z" fill="url(#paint2_radial_27_28)"/>
<path d="M22.9427 24.5367C21.6331 22.2759 18.3687 22.276 17.0589 24.5369L11.0576 34.8959C9.74443 37.1625 11.3798 40.0001 13.9993 40L15.476 40C15.9005 39.9999 16.1525 39.491 15.9689 39.1081C15.6849 38.5158 15.5258 37.8522 15.5258 37.1514C15.5259 34.6491 17.5544 32.6206 20.0566 32.6205C22.5589 32.6204 24.5873 34.6488 24.5872 37.151C24.5872 37.8515 24.4282 38.5149 24.1443 39.107C23.9608 39.4899 24.2142 39.9996 24.639 39.9996L26.0012 39.9996C28.6207 39.9995 30.2563 37.1618 28.9433 34.8952L22.9427 24.5367Z" fill="url(#paint3_radial_27_28)"/>
<defs>
<radialGradient id="paint0_radial_27_28" cx="0" cy="0" r="1" gradientUnits="userSpaceOnUse" gradientTransform="translate(20 20) rotate(90) scale(20)">
<stop stop-color="#78C601"/>
<stop offset="1" stop-color="#487701"/>
</radialGradient>
<radialGradient id="paint1_radial_27_28" cx="0" cy="0" r="1" gradientUnits="userSpaceOnUse" gradientTransform="translate(20 20) rotate(90) scale(20)">
<stop stop-color="#78C601"/>
<stop offset="1" stop-color="#487701"/>
</radialGradient>
<radialGradient id="paint2_radial_27_28" cx="0" cy="0" r="1" gradientUnits="userSpaceOnUse" gradientTransform="translate(20 20) rotate(90) scale(20)">
<stop stop-color="#78C601"/>
<stop offset="1" stop-color="#487701"/>
</radialGradient>
<radialGradient id="paint3_radial_27_28" cx="0" cy="0" r="1" gradientUnits="userSpaceOnUse" gradientTransform="translate(20 20) rotate(90) scale(20)">
<stop stop-color="#78C601"/>
<stop offset="1" stop-color="#487701"/>
</radialGradient>
</defs>
</svg>
