<svg width="64" height="64" viewBox="0 0 64 64" fill="none" xmlns="http://www.w3.org/2000/svg">
<path d="M27.2916 24.7413C29.3871 28.3586 34.6101 28.3584 36.7058 24.7409L46.3078 8.1666C48.4089 4.53993 45.7922 -0.000149536 41.601 3.69432e-09L39.2384 8.31279e-05C38.5593 0.000107091 38.1559 0.814352 38.4498 1.42701C38.9042 2.37471 39.1588 3.43653 39.1587 4.55781C39.1586 8.56138 35.9129 11.807 31.9094 11.8072C27.9058 11.8073 24.6604 8.5619 24.6605 4.55833C24.6606 3.43758 24.9149 2.37623 25.3691 1.42885C25.6627 0.816195 25.2573 0.000580414 24.5776 0.000604421L22.3981 0.000681763C18.2069 0.000830895 15.5899 4.54111 17.6907 8.16763L27.2916 24.7413Z" fill="#FAFFF2"/>
<path d="M24.7413 27.2916C28.3586 29.3871 28.3584 34.6101 24.7409 36.7058L8.1666 46.3078C4.53993 48.4089 -0.000149536 45.7922 3.69405e-09 41.601L8.1699e-05 39.2384C0.000105662 38.5593 0.814352 38.1559 1.42701 38.4498C2.37471 38.9042 3.43652 39.1588 4.55781 39.1587C8.56138 39.1586 11.807 35.9129 11.8072 31.9094C11.8073 27.9058 8.5619 24.6604 4.55832 24.6605C3.43758 24.6606 2.37623 24.9149 1.42885 25.3691C0.816194 25.6627 0.000580346 25.2573 0.000604353 24.5776L0.000680606 22.3981C0.000829738 18.2069 4.54111 15.5899 8.16763 17.6907L24.7413 27.2916Z" fill="#FAFFF2"/>
<path d="M39.2587 36.7084C35.6414 34.6129 35.6416 29.3899 39.2591 27.2942L55.8334 17.6921C59.4601 15.5911 64.0002 18.2078 64 22.399L63.9999 24.7616C63.9999 25.4407 63.1856 25.8441 62.573 25.5502C61.6253 25.0958 60.5635 24.8412 59.4422 24.8413C55.4386 24.8414 52.193 28.0871 52.1928 32.0906C52.1927 36.0942 55.4381 39.3396 59.4417 39.3395C60.5624 39.3394 61.6238 39.0851 62.5712 38.6309C63.1838 38.3373 63.9994 38.7427 63.9994 39.4224L63.9993 41.6019C63.9992 45.7931 59.4589 48.4101 55.8324 46.3093L39.2587 36.7084Z" fill="#FAFFF2"/>
<path d="M36.7084 39.2587C34.6129 35.6414 29.3899 35.6416 27.2942 39.2591L17.6921 55.8334C15.5911 59.4601 18.2078 64.0002 22.399 64L24.7616 63.9999C25.4407 63.9999 25.8441 63.1856 25.5502 62.573C25.0958 61.6253 24.8412 60.5635 24.8413 59.4422C24.8414 55.4386 28.0871 52.193 32.0906 52.1928C36.0942 52.1927 39.3396 55.4381 39.3395 59.4417C39.3394 60.5624 39.0851 61.6238 38.6309 62.5712C38.3373 63.1838 38.7427 63.9994 39.4224 63.9994L41.6019 63.9993C45.7931 63.9992 48.4101 59.4589 46.3093 55.8324L36.7084 39.2587Z" fill="#FAFFF2"/>
</svg>
