<svg width="396" height="396" viewBox="0 0 396 396" fill="none" xmlns="http://www.w3.org/2000/svg">
<g filter="url(#filter0_d_67_243)">
<path d="M36.0677 139.829C24.0581 107.374 -21.8464 107.374 -33.856 139.829L-61.3247 214.062C-81.6226 268.916 -124.872 312.165 -179.726 332.463L-253.959 359.932C-286.414 371.942 -286.414 417.846 -253.959 429.856L-179.726 457.324C-124.872 477.622 -81.6226 520.871 -61.3247 575.726L-33.856 649.958C-21.8464 682.414 24.0581 682.414 36.0677 649.958L63.5364 575.726C83.8343 520.871 127.083 477.622 181.938 457.324L256.17 429.856C288.626 417.846 288.626 371.942 256.17 359.932L181.937 332.463C127.083 312.165 83.8342 268.916 63.5363 214.062L36.0677 139.829Z" stroke="url(#paint0_radial_67_243)" stroke-width="0.5" shape-rendering="crispEdges"/>
</g>
<g filter="url(#filter1_d_67_243)">
<path d="M40.8758 274.129C38.0236 257.236 15.695 253.008 6.86383 267.689L-13.4722 301.494C-28.5184 326.507 -53.7407 343.697 -82.5223 348.557L-121.423 355.124C-138.316 357.977 -142.544 380.305 -127.864 389.136L-94.0578 409.472C-69.0456 424.519 -51.8549 449.741 -46.9956 478.523L-40.4278 517.423C-37.5756 534.316 -15.247 538.544 -6.41585 523.864L13.9202 490.058C28.9663 465.046 54.1887 447.855 82.9703 442.996L121.871 436.428C138.764 433.576 142.992 411.247 128.312 402.416L94.5057 382.08C69.4936 367.034 52.3029 341.811 47.4435 313.03L40.8758 274.129Z" stroke="url(#paint1_radial_67_243)" stroke-width="0.5" shape-rendering="crispEdges"/>
</g>
<g filter="url(#filter2_d_67_243)">
<path d="M83.2149 151.793C77.5575 117.715 32.5585 109.066 14.6704 138.618L-26.244 206.212C-56.4778 256.16 -107.024 290.408 -164.621 299.969L-242.566 312.909C-276.645 318.567 -285.294 363.566 -255.742 381.454L-188.148 422.368C-138.2 452.602 -103.952 503.148 -94.3903 560.745L-81.4505 638.69C-75.7932 672.769 -30.7942 681.418 -12.9061 651.866L28.0084 584.272C58.2421 534.324 108.788 500.076 166.385 490.514L244.331 477.575C278.409 471.917 287.058 426.918 257.506 409.03L189.912 368.116C139.964 337.882 105.717 287.336 96.1547 229.739L83.2149 151.793Z" stroke="url(#paint2_radial_67_243)" stroke-width="0.5" shape-rendering="crispEdges"/>
</g>
<g filter="url(#filter3_d_67_243)">
<path d="M205.583 239.861C220.041 208.419 187.581 175.959 156.139 190.417L84.2236 223.485C31.0823 247.92 -30.0822 247.92 -83.2236 223.485L-155.139 190.417C-186.581 175.959 -219.041 208.419 -204.583 239.861L-171.515 311.776C-147.08 364.918 -147.08 426.082 -171.515 479.224L-204.583 551.139C-219.041 582.581 -186.581 615.041 -155.139 600.583L-83.2235 567.515C-30.0821 543.08 31.0823 543.08 84.2237 567.515L156.139 600.583C187.581 615.041 220.041 582.581 205.583 551.139L172.515 479.224C148.08 426.082 148.08 364.918 172.515 311.776L205.583 239.861Z" stroke="url(#paint3_radial_67_243)" stroke-width="0.5" shape-rendering="crispEdges"/>
</g>
<g filter="url(#filter4_d_67_243)">
<path d="M231.275 281.37C251.408 253.222 225.659 215.219 192.053 223.482L115.189 242.38C58.3902 256.346 -1.67477 244.8 -49.2485 210.773L-113.629 164.725C-141.777 144.593 -179.78 170.342 -171.517 203.948L-152.619 280.812C-138.653 337.61 -150.199 397.675 -184.226 445.249L-230.274 509.629C-250.406 537.777 -224.657 575.781 -191.051 567.518L-114.187 548.619C-57.3886 534.654 2.67632 546.199 50.25 580.226L114.63 626.274C142.778 646.407 180.782 620.658 172.519 587.052L153.62 510.188C139.655 453.389 151.2 393.324 185.227 345.75L231.275 281.37Z" stroke="url(#paint4_radial_67_243)" stroke-width="0.5" shape-rendering="crispEdges"/>
</g>
<g filter="url(#filter5_d_67_243)">
<path d="M115.544 338.482C125.521 324.532 112.76 305.698 96.1054 309.793L57.7539 319.222C29.3787 326.199 -0.62845 320.431 -24.3952 303.432L-56.5179 280.456C-70.4678 270.479 -89.3021 283.24 -85.2071 299.895L-75.7775 338.246C-68.8008 366.621 -74.5686 396.629 -91.5677 420.395L-114.543 452.518C-124.521 466.468 -111.76 485.302 -95.1051 481.207L-56.7535 471.778C-28.3783 464.801 1.62881 470.569 25.3956 487.568L57.5183 510.544C71.4682 520.521 90.3024 507.76 86.2074 491.105L76.7778 452.754C69.8011 424.378 75.5689 394.371 92.5681 370.605L115.544 338.482Z" stroke="url(#paint5_radial_67_243)" stroke-width="0.5" shape-rendering="crispEdges"/>
</g>
<g filter="url(#filter6_d_67_243)">
<path d="M250.093 332.367C275.687 309.074 258.49 266.511 223.898 267.534L144.78 269.874C86.3151 271.603 30.0129 247.704 -9.35634 204.447L-62.6338 145.908C-85.9273 120.314 -128.49 137.511 -127.467 172.103L-125.127 251.221C-123.398 309.686 -147.297 365.988 -190.554 405.357L-249.093 458.635C-274.686 481.928 -257.49 524.491 -222.898 523.468L-143.78 521.128C-85.315 519.399 -29.0128 543.298 10.3564 586.555L63.6338 645.094C86.9274 670.688 129.49 653.491 128.467 618.899L126.127 539.781C124.399 481.316 148.297 425.014 191.554 385.645L250.093 332.367Z" stroke="url(#paint6_radial_67_243)" stroke-width="0.5" shape-rendering="crispEdges"/>
</g>
<g filter="url(#filter7_d_67_243)">
<path d="M257.523 380.615C287.054 362.571 278.2 317.528 244.037 312.003L165.899 299.366C108.159 290.028 57.3805 255.931 26.884 206.021L-14.386 138.478C-32.4298 108.948 -77.4732 117.801 -82.9982 151.964L-95.6349 230.102C-104.973 287.842 -139.07 338.621 -188.98 369.117L-256.523 410.387C-286.053 428.431 -277.2 473.474 -243.037 478.999L-164.899 491.636C-107.159 500.974 -56.3803 535.071 -25.8839 584.981L15.3861 652.524C33.4299 682.055 78.4734 673.201 83.9983 639.038L96.635 560.9C105.973 503.16 140.07 452.381 189.98 421.885L257.523 380.615Z" stroke="url(#paint7_radial_67_243)" stroke-width="0.5" shape-rendering="crispEdges"/>
</g>
<g filter="url(#filter8_d_67_243)">
<path d="M221.629 527.347C256.198 528.973 274.134 486.717 248.951 462.98L191.351 408.689C148.788 368.571 125.875 311.86 128.624 253.435L132.344 174.369C133.971 139.801 91.7147 121.864 67.978 147.047L13.687 204.647C-26.4312 247.21 -83.1419 270.123 -141.567 267.374L-220.633 263.654C-255.202 262.027 -273.138 304.283 -247.955 328.02L-190.355 382.311C-147.792 422.429 -124.879 479.14 -127.628 537.565L-131.348 616.631C-132.975 651.2 -90.719 669.136 -66.9823 643.953L-12.6913 586.353C27.4269 543.79 84.1376 520.877 142.563 523.626L221.629 527.347Z" stroke="url(#paint8_radial_67_243)" stroke-width="0.5" shape-rendering="crispEdges"/>
</g>
<g filter="url(#filter9_d_67_243)">
<path d="M192.766 566.717C226.406 574.839 251.997 536.728 231.747 508.665L185.43 444.477C151.205 397.046 139.409 337.03 153.137 280.173L171.714 203.231C179.837 169.591 141.726 144.001 113.662 164.251L49.4747 210.567C2.04357 244.793 -57.9726 256.589 -114.829 242.861L-191.771 224.283C-225.411 216.161 -251.002 254.272 -230.752 282.335L-184.435 346.523C-150.21 393.954 -138.414 453.97 -152.141 510.826L-170.719 587.769C-178.841 621.409 -140.731 646.999 -112.667 626.749L-48.4797 580.432C-1.0485 546.207 58.9677 534.411 115.824 548.139L192.766 566.717Z" stroke="url(#paint9_radial_67_243)" stroke-width="0.5" shape-rendering="crispEdges"/>
</g>
<defs>
<filter id="filter0_d_67_243" x="-294.55" y="99.2377" width="591.312" height="591.312" filterUnits="userSpaceOnUse" color-interpolation-filters="sRGB">
<feFlood flood-opacity="0" result="BackgroundImageFix"/>
<feColorMatrix in="SourceAlpha" type="matrix" values="0 0 0 0 0 0 0 0 0 0 0 0 0 0 0 0 0 0 127 0" result="hardAlpha"/>
<feOffset/>
<feGaussianBlur stdDeviation="8"/>
<feComposite in2="hardAlpha" operator="out"/>
<feColorMatrix type="matrix" values="0 0 0 0 0.788235 0 0 0 0 0.909804 0 0 0 0 0.6 0 0 0 0.24 0"/>
<feBlend mode="normal" in2="BackgroundImageFix" result="effect1_dropShadow_67_243"/>
<feBlend mode="normal" in="SourceGraphic" in2="effect1_dropShadow_67_243" result="shape"/>
</filter>
<filter id="filter1_d_67_243" x="-153.068" y="242.484" width="306.584" height="306.584" filterUnits="userSpaceOnUse" color-interpolation-filters="sRGB">
<feFlood flood-opacity="0" result="BackgroundImageFix"/>
<feColorMatrix in="SourceAlpha" type="matrix" values="0 0 0 0 0 0 0 0 0 0 0 0 0 0 0 0 0 0 127 0" result="hardAlpha"/>
<feOffset/>
<feGaussianBlur stdDeviation="8"/>
<feComposite in2="hardAlpha" operator="out"/>
<feColorMatrix type="matrix" values="0 0 0 0 0.788235 0 0 0 0 0.909804 0 0 0 0 0.6 0 0 0 0.24 0"/>
<feBlend mode="normal" in2="BackgroundImageFix" result="effect1_dropShadow_67_243"/>
<feBlend mode="normal" in="SourceGraphic" in2="effect1_dropShadow_67_243" result="shape"/>
</filter>
<filter id="filter2_d_67_243" x="-289.96" y="104.4" width="581.683" height="581.683" filterUnits="userSpaceOnUse" color-interpolation-filters="sRGB">
<feFlood flood-opacity="0" result="BackgroundImageFix"/>
<feColorMatrix in="SourceAlpha" type="matrix" values="0 0 0 0 0 0 0 0 0 0 0 0 0 0 0 0 0 0 127 0" result="hardAlpha"/>
<feOffset/>
<feGaussianBlur stdDeviation="8"/>
<feComposite in2="hardAlpha" operator="out"/>
<feColorMatrix type="matrix" values="0 0 0 0 0.788235 0 0 0 0 0.909804 0 0 0 0 0.6 0 0 0 0.24 0"/>
<feBlend mode="normal" in2="BackgroundImageFix" result="effect1_dropShadow_67_243"/>
<feBlend mode="normal" in="SourceGraphic" in2="effect1_dropShadow_67_243" result="shape"/>
</filter>
<filter id="filter3_d_67_243" x="-224.375" y="170.625" width="449.75" height="449.75" filterUnits="userSpaceOnUse" color-interpolation-filters="sRGB">
<feFlood flood-opacity="0" result="BackgroundImageFix"/>
<feColorMatrix in="SourceAlpha" type="matrix" values="0 0 0 0 0 0 0 0 0 0 0 0 0 0 0 0 0 0 127 0" result="hardAlpha"/>
<feOffset/>
<feGaussianBlur stdDeviation="8"/>
<feComposite in2="hardAlpha" operator="out"/>
<feColorMatrix type="matrix" values="0 0 0 0 0.788235 0 0 0 0 0.909804 0 0 0 0 0.6 0 0 0 0.24 0"/>
<feBlend mode="normal" in2="BackgroundImageFix" result="effect1_dropShadow_67_243"/>
<feBlend mode="normal" in="SourceGraphic" in2="effect1_dropShadow_67_243" result="shape"/>
</filter>
<filter id="filter4_d_67_243" x="-253.619" y="141.38" width="508.24" height="508.24" filterUnits="userSpaceOnUse" color-interpolation-filters="sRGB">
<feFlood flood-opacity="0" result="BackgroundImageFix"/>
<feColorMatrix in="SourceAlpha" type="matrix" values="0 0 0 0 0 0 0 0 0 0 0 0 0 0 0 0 0 0 127 0" result="hardAlpha"/>
<feOffset/>
<feGaussianBlur stdDeviation="8"/>
<feComposite in2="hardAlpha" operator="out"/>
<feColorMatrix type="matrix" values="0 0 0 0 0.788235 0 0 0 0 0.909804 0 0 0 0 0.6 0 0 0 0.24 0"/>
<feBlend mode="normal" in2="BackgroundImageFix" result="effect1_dropShadow_67_243"/>
<feBlend mode="normal" in="SourceGraphic" in2="effect1_dropShadow_67_243" result="shape"/>
</filter>
<filter id="filter5_d_67_243" x="-134.31" y="260.689" width="269.621" height="269.621" filterUnits="userSpaceOnUse" color-interpolation-filters="sRGB">
<feFlood flood-opacity="0" result="BackgroundImageFix"/>
<feColorMatrix in="SourceAlpha" type="matrix" values="0 0 0 0 0 0 0 0 0 0 0 0 0 0 0 0 0 0 127 0" result="hardAlpha"/>
<feOffset/>
<feGaussianBlur stdDeviation="8"/>
<feComposite in2="hardAlpha" operator="out"/>
<feColorMatrix type="matrix" values="0 0 0 0 0.788235 0 0 0 0 0.909804 0 0 0 0 0.6 0 0 0 0.24 0"/>
<feBlend mode="normal" in2="BackgroundImageFix" result="effect1_dropShadow_67_243"/>
<feBlend mode="normal" in="SourceGraphic" in2="effect1_dropShadow_67_243" result="shape"/>
</filter>
<filter id="filter6_d_67_243" x="-277.615" y="117.386" width="556.229" height="556.229" filterUnits="userSpaceOnUse" color-interpolation-filters="sRGB">
<feFlood flood-opacity="0" result="BackgroundImageFix"/>
<feColorMatrix in="SourceAlpha" type="matrix" values="0 0 0 0 0 0 0 0 0 0 0 0 0 0 0 0 0 0 127 0" result="hardAlpha"/>
<feOffset/>
<feGaussianBlur stdDeviation="8"/>
<feComposite in2="hardAlpha" operator="out"/>
<feColorMatrix type="matrix" values="0 0 0 0 0.788235 0 0 0 0 0.909804 0 0 0 0 0.6 0 0 0 0.24 0"/>
<feBlend mode="normal" in2="BackgroundImageFix" result="effect1_dropShadow_67_243"/>
<feBlend mode="normal" in="SourceGraphic" in2="effect1_dropShadow_67_243" result="shape"/>
</filter>
<filter id="filter7_d_67_243" x="-290.641" y="104.36" width="582.283" height="582.283" filterUnits="userSpaceOnUse" color-interpolation-filters="sRGB">
<feFlood flood-opacity="0" result="BackgroundImageFix"/>
<feColorMatrix in="SourceAlpha" type="matrix" values="0 0 0 0 0 0 0 0 0 0 0 0 0 0 0 0 0 0 127 0" result="hardAlpha"/>
<feOffset/>
<feGaussianBlur stdDeviation="8"/>
<feComposite in2="hardAlpha" operator="out"/>
<feColorMatrix type="matrix" values="0 0 0 0 0.788235 0 0 0 0 0.909804 0 0 0 0 0.6 0 0 0 0.24 0"/>
<feBlend mode="normal" in2="BackgroundImageFix" result="effect1_dropShadow_67_243"/>
<feBlend mode="normal" in="SourceGraphic" in2="effect1_dropShadow_67_243" result="shape"/>
</filter>
<filter id="filter8_d_67_243" x="-276.005" y="118.997" width="553.006" height="553.006" filterUnits="userSpaceOnUse" color-interpolation-filters="sRGB">
<feFlood flood-opacity="0" result="BackgroundImageFix"/>
<feColorMatrix in="SourceAlpha" type="matrix" values="0 0 0 0 0 0 0 0 0 0 0 0 0 0 0 0 0 0 127 0" result="hardAlpha"/>
<feOffset/>
<feGaussianBlur stdDeviation="8"/>
<feComposite in2="hardAlpha" operator="out"/>
<feColorMatrix type="matrix" values="0 0 0 0 0.788235 0 0 0 0 0.909804 0 0 0 0 0.6 0 0 0 0.24 0"/>
<feBlend mode="normal" in2="BackgroundImageFix" result="effect1_dropShadow_67_243"/>
<feBlend mode="normal" in="SourceGraphic" in2="effect1_dropShadow_67_243" result="shape"/>
</filter>
<filter id="filter9_d_67_243" x="-254.187" y="140.815" width="509.37" height="509.37" filterUnits="userSpaceOnUse" color-interpolation-filters="sRGB">
<feFlood flood-opacity="0" result="BackgroundImageFix"/>
<feColorMatrix in="SourceAlpha" type="matrix" values="0 0 0 0 0 0 0 0 0 0 0 0 0 0 0 0 0 0 127 0" result="hardAlpha"/>
<feOffset/>
<feGaussianBlur stdDeviation="8"/>
<feComposite in2="hardAlpha" operator="out"/>
<feColorMatrix type="matrix" values="0 0 0 0 0.788235 0 0 0 0 0.909804 0 0 0 0 0.6 0 0 0 0.24 0"/>
<feBlend mode="normal" in2="BackgroundImageFix" result="effect1_dropShadow_67_243"/>
<feBlend mode="normal" in="SourceGraphic" in2="effect1_dropShadow_67_243" result="shape"/>
</filter>
<radialGradient id="paint0_radial_67_243" cx="0" cy="0" r="1" gradientUnits="userSpaceOnUse" gradientTransform="translate(1.10583 394.894) rotate(90) scale(279.656)">
<stop offset="0.390625" stop-color="#78C601"/>
<stop offset="1" stop-color="#487701"/>
</radialGradient>
<radialGradient id="paint1_radial_67_243" cx="0" cy="0" r="1" gradientUnits="userSpaceOnUse" gradientTransform="translate(0.223989 395.776) rotate(100.723) scale(139.387)">
<stop offset="0.390625" stop-color="#78C601"/>
<stop offset="1" stop-color="#487701"/>
</radialGradient>
<radialGradient id="paint2_radial_67_243" cx="0" cy="0" r="1" gradientUnits="userSpaceOnUse" gradientTransform="translate(0.88216 395.242) rotate(100.88) scale(279.161)">
<stop offset="0.390625" stop-color="#78C601"/>
<stop offset="1" stop-color="#487701"/>
</radialGradient>
<radialGradient id="paint3_radial_67_243" cx="0" cy="0" r="1" gradientUnits="userSpaceOnUse" gradientTransform="translate(0.500044 395.5) rotate(135) scale(279.661)">
<stop offset="0.390625" stop-color="#78C601"/>
<stop offset="1" stop-color="#487701"/>
</radialGradient>
<radialGradient id="paint4_radial_67_243" cx="0" cy="0" r="1" gradientUnits="userSpaceOnUse" gradientTransform="translate(0.500763 395.5) rotate(145.88) scale(279.661)">
<stop offset="0.390625" stop-color="#78C601"/>
<stop offset="1" stop-color="#487701"/>
</radialGradient>
<radialGradient id="paint5_radial_67_243" cx="0" cy="0" r="1" gradientUnits="userSpaceOnUse" gradientTransform="translate(0.500187 395.5) rotate(145.88) scale(139.537)">
<stop offset="0.390625" stop-color="#78C601"/>
<stop offset="1" stop-color="#487701"/>
</radialGradient>
<radialGradient id="paint6_radial_67_243" cx="0" cy="0" r="1" gradientUnits="userSpaceOnUse" gradientTransform="translate(0.500033 395.501) rotate(158) scale(279.661)">
<stop offset="0.390625" stop-color="#78C601"/>
<stop offset="1" stop-color="#487701"/>
</radialGradient>
<radialGradient id="paint7_radial_67_243" cx="0" cy="0" r="1" gradientUnits="userSpaceOnUse" gradientTransform="translate(0.500066 395.501) rotate(168.88) scale(279.661)">
<stop offset="0.390625" stop-color="#78C601"/>
<stop offset="1" stop-color="#487701"/>
</radialGradient>
<radialGradient id="paint8_radial_67_243" cx="0" cy="0" r="1" gradientUnits="userSpaceOnUse" gradientTransform="translate(0.497878 395.5) rotate(-157) scale(279.661)">
<stop offset="0.390625" stop-color="#78C601"/>
<stop offset="1" stop-color="#487701"/>
</radialGradient>
<radialGradient id="paint9_radial_67_243" cx="0" cy="0" r="1" gradientUnits="userSpaceOnUse" gradientTransform="translate(0.497545 395.5) rotate(-146.12) scale(279.661)">
<stop offset="0.390625" stop-color="#78C601"/>
<stop offset="1" stop-color="#487701"/>
</radialGradient>
</defs>
</svg>
