<svg width="396" height="395" viewBox="0 0 396 395" fill="none" xmlns="http://www.w3.org/2000/svg">
<g filter="url(#filter0_d_67_228)">
<path d="M431.068 -256.171C419.058 -288.626 373.154 -288.626 361.144 -256.171L333.675 -181.938C313.377 -127.084 270.128 -83.8345 215.274 -63.5366L141.041 -36.068C108.586 -24.0584 108.586 21.8462 141.041 33.8558L215.274 61.3244C270.128 81.6223 313.377 124.871 333.675 179.726L361.144 253.958C373.154 286.414 419.058 286.414 431.068 253.958L458.536 179.726C478.834 124.871 522.083 81.6223 576.938 61.3244L651.17 33.8557C683.626 21.8461 683.626 -24.0584 651.17 -36.068L576.937 -63.5367C522.083 -83.8346 478.834 -127.084 458.536 -181.938L431.068 -256.171Z" stroke="url(#paint0_radial_67_228)" stroke-width="0.5" shape-rendering="crispEdges"/>
</g>
<g filter="url(#filter1_d_67_228)">
<path d="M435.876 -121.871C433.024 -138.764 410.695 -142.992 401.864 -128.312L381.528 -94.5056C366.482 -69.4935 341.259 -52.3028 312.478 -47.4434L273.577 -40.8756C256.684 -38.0235 252.456 -15.6949 267.136 -6.86372L300.942 13.4724C325.954 28.5185 343.145 53.7408 348.004 82.5225L354.572 121.423C357.424 138.316 379.753 142.544 388.584 127.864L408.92 94.0579C423.966 69.0457 449.189 51.855 477.97 46.9957L516.871 40.4279C533.764 37.5757 537.992 15.2471 523.312 6.41595L489.506 -13.9201C464.494 -28.9662 447.303 -54.1886 442.444 -82.9702L435.876 -121.871Z" stroke="url(#paint1_radial_67_228)" stroke-width="0.5" shape-rendering="crispEdges"/>
</g>
<g filter="url(#filter2_d_67_228)">
<path d="M478.215 -244.207C472.558 -278.285 427.559 -286.934 409.67 -257.382L368.756 -189.788C338.522 -139.84 287.976 -105.592 230.379 -96.0306L152.434 -83.0908C118.356 -77.4335 109.706 -32.4344 139.259 -14.5463L206.852 26.3681C256.801 56.6018 291.048 107.148 300.61 164.745L313.55 242.69C319.207 276.769 364.206 285.418 382.094 255.866L423.008 188.272C453.242 138.324 503.788 104.076 561.386 94.5144L639.331 81.5746C673.409 75.9172 682.058 30.9182 652.506 13.0301L584.912 -27.8844C534.964 -58.1181 500.717 -108.664 491.155 -166.261L478.215 -244.207Z" stroke="url(#paint2_radial_67_228)" stroke-width="0.5" shape-rendering="crispEdges"/>
</g>
<g filter="url(#filter3_d_67_228)">
<path d="M600.583 -156.139C615.041 -187.581 582.581 -220.041 551.139 -205.583L479.224 -172.515C426.082 -148.08 364.918 -148.08 311.776 -172.515L239.861 -205.583C208.419 -220.041 175.959 -187.581 190.417 -156.139L223.485 -84.2235C247.92 -31.0822 247.92 30.0823 223.485 83.2237L190.417 155.139C175.959 186.581 208.419 219.041 239.861 204.583L311.776 171.515C364.918 147.08 426.082 147.08 479.224 171.515L551.139 204.583C582.581 219.041 615.041 186.581 600.583 155.139L567.515 83.2236C543.08 30.0822 543.08 -31.0823 567.515 -84.2237L600.583 -156.139Z" stroke="url(#paint3_radial_67_228)" stroke-width="0.5" shape-rendering="crispEdges"/>
</g>
<g filter="url(#filter4_d_67_228)">
<path d="M626.275 -114.63C646.408 -142.778 620.659 -180.781 587.053 -172.518L510.189 -153.62C453.39 -139.654 393.325 -151.2 345.752 -185.227L281.371 -231.275C253.223 -251.407 215.22 -225.658 223.483 -192.052L242.381 -115.188C256.347 -58.3897 244.801 1.67527 210.774 49.249L164.726 113.629C144.594 141.777 170.343 179.781 203.949 171.518L280.813 152.619C337.611 138.654 397.676 150.199 445.25 184.226L509.63 230.274C537.778 250.407 575.782 224.658 567.519 191.052L548.62 114.188C534.655 57.3891 546.2 -2.67582 580.227 -50.2495L626.275 -114.63Z" stroke="url(#paint4_radial_67_228)" stroke-width="0.5" shape-rendering="crispEdges"/>
</g>
<g filter="url(#filter5_d_67_228)">
<path d="M510.544 -57.5182C520.522 -71.4681 507.76 -90.3023 491.106 -86.2073L452.754 -76.7777C424.379 -69.801 394.372 -75.5688 370.605 -92.568L338.482 -115.544C324.532 -125.521 305.698 -112.76 309.793 -96.1053L319.223 -57.7538C326.199 -29.3785 320.431 0.628547 303.432 24.3953L280.457 56.518C270.479 70.4679 283.24 89.3022 299.895 85.2072L338.247 75.7776C366.622 68.8009 396.629 74.5687 420.396 91.5678L452.518 114.544C466.468 124.521 485.302 111.76 481.208 95.1052L471.778 56.7537C464.801 28.3784 470.569 -1.62871 487.568 -25.3955L510.544 -57.5182Z" stroke="url(#paint5_radial_67_228)" stroke-width="0.5" shape-rendering="crispEdges"/>
</g>
<g filter="url(#filter6_d_67_228)">
<path d="M645.093 -63.6328C670.687 -86.9264 653.49 -129.489 618.898 -128.466L539.78 -126.126C481.315 -124.397 425.013 -148.296 385.644 -191.553L332.366 -250.092C309.073 -275.686 266.51 -258.489 267.533 -223.897L269.873 -144.779C271.602 -86.314 247.703 -30.0119 204.446 9.35738L145.907 62.6348C120.314 85.9284 137.51 128.491 172.102 127.468L251.22 125.128C309.685 123.399 365.987 147.298 405.356 190.555L458.634 249.094C481.927 274.688 524.49 257.491 523.467 222.899L521.127 143.781C519.399 85.316 543.297 29.0139 586.554 -10.3554L645.093 -63.6328Z" stroke="url(#paint6_radial_67_228)" stroke-width="0.5" shape-rendering="crispEdges"/>
</g>
<g filter="url(#filter7_d_67_228)">
<path d="M652.523 -15.385C682.054 -33.4288 673.2 -78.4722 639.037 -83.9971L560.899 -96.6339C503.159 -105.972 452.38 -140.069 421.884 -189.979L380.614 -257.522C362.57 -287.052 317.527 -278.199 312.002 -244.036L299.365 -165.898C290.027 -108.158 255.93 -57.3793 206.02 -26.8829L138.477 14.3871C108.946 32.4309 117.8 77.4743 151.963 82.9993L230.101 95.636C287.841 104.974 338.62 139.071 369.116 188.981L410.386 256.524C428.43 286.055 473.473 277.201 478.998 243.038L491.635 164.9C500.973 107.16 535.07 56.3814 584.98 25.885L652.523 -15.385Z" stroke="url(#paint7_radial_67_228)" stroke-width="0.5" shape-rendering="crispEdges"/>
</g>
<g filter="url(#filter8_d_67_228)">
<path d="M616.629 131.347C651.198 132.973 669.134 90.7171 643.951 66.9804L586.351 12.6894C543.788 -27.4288 520.875 -84.1395 523.624 -142.565L527.344 -221.631C528.971 -256.199 486.715 -274.136 462.978 -248.953L408.687 -191.353C368.569 -148.79 311.858 -125.877 253.433 -128.626L174.367 -132.346C139.798 -133.973 121.862 -91.7166 147.045 -67.9799L204.645 -13.6889C247.208 26.4293 270.121 83.14 267.372 141.565L263.652 220.631C262.025 255.2 304.281 273.136 328.018 247.953L382.309 190.353C422.427 147.79 479.138 124.877 537.563 127.626L616.629 131.347Z" stroke="url(#paint8_radial_67_228)" stroke-width="0.5" shape-rendering="crispEdges"/>
</g>
<g filter="url(#filter9_d_67_228)">
<path d="M587.766 170.717C621.406 178.839 646.997 140.728 626.747 112.665L580.43 48.4771C546.205 1.04592 534.409 -58.9703 548.137 -115.827L566.714 -192.769C574.837 -226.409 536.726 -251.999 508.662 -231.749L444.475 -185.433C397.044 -151.207 337.027 -139.411 280.171 -153.139L203.229 -171.717C169.589 -179.839 143.998 -141.728 164.248 -113.665L210.565 -49.4774C244.79 -2.0462 256.586 57.97 242.859 114.826L224.281 191.769C216.159 225.409 254.269 250.999 282.333 230.749L346.52 184.432C393.952 150.207 453.968 138.411 510.824 152.139L587.766 170.717Z" stroke="url(#paint9_radial_67_228)" stroke-width="0.5" shape-rendering="crispEdges"/>
</g>
<defs>
<filter id="filter0_d_67_228" x="100.45" y="-296.762" width="591.312" height="591.312" filterUnits="userSpaceOnUse" color-interpolation-filters="sRGB">
<feFlood flood-opacity="0" result="BackgroundImageFix"/>
<feColorMatrix in="SourceAlpha" type="matrix" values="0 0 0 0 0 0 0 0 0 0 0 0 0 0 0 0 0 0 127 0" result="hardAlpha"/>
<feOffset/>
<feGaussianBlur stdDeviation="8"/>
<feComposite in2="hardAlpha" operator="out"/>
<feColorMatrix type="matrix" values="0 0 0 0 0.788235 0 0 0 0 0.909804 0 0 0 0 0.6 0 0 0 0.24 0"/>
<feBlend mode="normal" in2="BackgroundImageFix" result="effect1_dropShadow_67_228"/>
<feBlend mode="normal" in="SourceGraphic" in2="effect1_dropShadow_67_228" result="shape"/>
</filter>
<filter id="filter1_d_67_228" x="241.932" y="-153.516" width="306.584" height="306.584" filterUnits="userSpaceOnUse" color-interpolation-filters="sRGB">
<feFlood flood-opacity="0" result="BackgroundImageFix"/>
<feColorMatrix in="SourceAlpha" type="matrix" values="0 0 0 0 0 0 0 0 0 0 0 0 0 0 0 0 0 0 127 0" result="hardAlpha"/>
<feOffset/>
<feGaussianBlur stdDeviation="8"/>
<feComposite in2="hardAlpha" operator="out"/>
<feColorMatrix type="matrix" values="0 0 0 0 0.788235 0 0 0 0 0.909804 0 0 0 0 0.6 0 0 0 0.24 0"/>
<feBlend mode="normal" in2="BackgroundImageFix" result="effect1_dropShadow_67_228"/>
<feBlend mode="normal" in="SourceGraphic" in2="effect1_dropShadow_67_228" result="shape"/>
</filter>
<filter id="filter2_d_67_228" x="105.041" y="-291.6" width="581.683" height="581.683" filterUnits="userSpaceOnUse" color-interpolation-filters="sRGB">
<feFlood flood-opacity="0" result="BackgroundImageFix"/>
<feColorMatrix in="SourceAlpha" type="matrix" values="0 0 0 0 0 0 0 0 0 0 0 0 0 0 0 0 0 0 127 0" result="hardAlpha"/>
<feOffset/>
<feGaussianBlur stdDeviation="8"/>
<feComposite in2="hardAlpha" operator="out"/>
<feColorMatrix type="matrix" values="0 0 0 0 0.788235 0 0 0 0 0.909804 0 0 0 0 0.6 0 0 0 0.24 0"/>
<feBlend mode="normal" in2="BackgroundImageFix" result="effect1_dropShadow_67_228"/>
<feBlend mode="normal" in="SourceGraphic" in2="effect1_dropShadow_67_228" result="shape"/>
</filter>
<filter id="filter3_d_67_228" x="170.625" y="-225.375" width="449.751" height="449.75" filterUnits="userSpaceOnUse" color-interpolation-filters="sRGB">
<feFlood flood-opacity="0" result="BackgroundImageFix"/>
<feColorMatrix in="SourceAlpha" type="matrix" values="0 0 0 0 0 0 0 0 0 0 0 0 0 0 0 0 0 0 127 0" result="hardAlpha"/>
<feOffset/>
<feGaussianBlur stdDeviation="8"/>
<feComposite in2="hardAlpha" operator="out"/>
<feColorMatrix type="matrix" values="0 0 0 0 0.788235 0 0 0 0 0.909804 0 0 0 0 0.6 0 0 0 0.24 0"/>
<feBlend mode="normal" in2="BackgroundImageFix" result="effect1_dropShadow_67_228"/>
<feBlend mode="normal" in="SourceGraphic" in2="effect1_dropShadow_67_228" result="shape"/>
</filter>
<filter id="filter4_d_67_228" x="141.381" y="-254.62" width="508.24" height="508.24" filterUnits="userSpaceOnUse" color-interpolation-filters="sRGB">
<feFlood flood-opacity="0" result="BackgroundImageFix"/>
<feColorMatrix in="SourceAlpha" type="matrix" values="0 0 0 0 0 0 0 0 0 0 0 0 0 0 0 0 0 0 127 0" result="hardAlpha"/>
<feOffset/>
<feGaussianBlur stdDeviation="8"/>
<feComposite in2="hardAlpha" operator="out"/>
<feColorMatrix type="matrix" values="0 0 0 0 0.788235 0 0 0 0 0.909804 0 0 0 0 0.6 0 0 0 0.24 0"/>
<feBlend mode="normal" in2="BackgroundImageFix" result="effect1_dropShadow_67_228"/>
<feBlend mode="normal" in="SourceGraphic" in2="effect1_dropShadow_67_228" result="shape"/>
</filter>
<filter id="filter5_d_67_228" x="260.69" y="-135.311" width="269.621" height="269.621" filterUnits="userSpaceOnUse" color-interpolation-filters="sRGB">
<feFlood flood-opacity="0" result="BackgroundImageFix"/>
<feColorMatrix in="SourceAlpha" type="matrix" values="0 0 0 0 0 0 0 0 0 0 0 0 0 0 0 0 0 0 127 0" result="hardAlpha"/>
<feOffset/>
<feGaussianBlur stdDeviation="8"/>
<feComposite in2="hardAlpha" operator="out"/>
<feColorMatrix type="matrix" values="0 0 0 0 0.788235 0 0 0 0 0.909804 0 0 0 0 0.6 0 0 0 0.24 0"/>
<feBlend mode="normal" in2="BackgroundImageFix" result="effect1_dropShadow_67_228"/>
<feBlend mode="normal" in="SourceGraphic" in2="effect1_dropShadow_67_228" result="shape"/>
</filter>
<filter id="filter6_d_67_228" x="117.385" y="-278.614" width="556.229" height="556.229" filterUnits="userSpaceOnUse" color-interpolation-filters="sRGB">
<feFlood flood-opacity="0" result="BackgroundImageFix"/>
<feColorMatrix in="SourceAlpha" type="matrix" values="0 0 0 0 0 0 0 0 0 0 0 0 0 0 0 0 0 0 127 0" result="hardAlpha"/>
<feOffset/>
<feGaussianBlur stdDeviation="8"/>
<feComposite in2="hardAlpha" operator="out"/>
<feColorMatrix type="matrix" values="0 0 0 0 0.788235 0 0 0 0 0.909804 0 0 0 0 0.6 0 0 0 0.24 0"/>
<feBlend mode="normal" in2="BackgroundImageFix" result="effect1_dropShadow_67_228"/>
<feBlend mode="normal" in="SourceGraphic" in2="effect1_dropShadow_67_228" result="shape"/>
</filter>
<filter id="filter7_d_67_228" x="104.359" y="-291.64" width="582.283" height="582.283" filterUnits="userSpaceOnUse" color-interpolation-filters="sRGB">
<feFlood flood-opacity="0" result="BackgroundImageFix"/>
<feColorMatrix in="SourceAlpha" type="matrix" values="0 0 0 0 0 0 0 0 0 0 0 0 0 0 0 0 0 0 127 0" result="hardAlpha"/>
<feOffset/>
<feGaussianBlur stdDeviation="8"/>
<feComposite in2="hardAlpha" operator="out"/>
<feColorMatrix type="matrix" values="0 0 0 0 0.788235 0 0 0 0 0.909804 0 0 0 0 0.6 0 0 0 0.24 0"/>
<feBlend mode="normal" in2="BackgroundImageFix" result="effect1_dropShadow_67_228"/>
<feBlend mode="normal" in="SourceGraphic" in2="effect1_dropShadow_67_228" result="shape"/>
</filter>
<filter id="filter8_d_67_228" x="118.995" y="-277.003" width="553.006" height="553.006" filterUnits="userSpaceOnUse" color-interpolation-filters="sRGB">
<feFlood flood-opacity="0" result="BackgroundImageFix"/>
<feColorMatrix in="SourceAlpha" type="matrix" values="0 0 0 0 0 0 0 0 0 0 0 0 0 0 0 0 0 0 127 0" result="hardAlpha"/>
<feOffset/>
<feGaussianBlur stdDeviation="8"/>
<feComposite in2="hardAlpha" operator="out"/>
<feColorMatrix type="matrix" values="0 0 0 0 0.788235 0 0 0 0 0.909804 0 0 0 0 0.6 0 0 0 0.24 0"/>
<feBlend mode="normal" in2="BackgroundImageFix" result="effect1_dropShadow_67_228"/>
<feBlend mode="normal" in="SourceGraphic" in2="effect1_dropShadow_67_228" result="shape"/>
</filter>
<filter id="filter9_d_67_228" x="140.813" y="-255.185" width="509.37" height="509.37" filterUnits="userSpaceOnUse" color-interpolation-filters="sRGB">
<feFlood flood-opacity="0" result="BackgroundImageFix"/>
<feColorMatrix in="SourceAlpha" type="matrix" values="0 0 0 0 0 0 0 0 0 0 0 0 0 0 0 0 0 0 127 0" result="hardAlpha"/>
<feOffset/>
<feGaussianBlur stdDeviation="8"/>
<feComposite in2="hardAlpha" operator="out"/>
<feColorMatrix type="matrix" values="0 0 0 0 0.788235 0 0 0 0 0.909804 0 0 0 0 0.6 0 0 0 0.24 0"/>
<feBlend mode="normal" in2="BackgroundImageFix" result="effect1_dropShadow_67_228"/>
<feBlend mode="normal" in="SourceGraphic" in2="effect1_dropShadow_67_228" result="shape"/>
</filter>
<radialGradient id="paint0_radial_67_228" cx="0" cy="0" r="1" gradientUnits="userSpaceOnUse" gradientTransform="translate(396.106 -1.10614) rotate(90) scale(279.656)">
<stop offset="0.390625" stop-color="#78C601"/>
<stop offset="1" stop-color="#487701"/>
</radialGradient>
<radialGradient id="paint1_radial_67_228" cx="0" cy="0" r="1" gradientUnits="userSpaceOnUse" gradientTransform="translate(395.224 -0.223887) rotate(100.723) scale(139.387)">
<stop offset="0.390625" stop-color="#78C601"/>
<stop offset="1" stop-color="#487701"/>
</radialGradient>
<radialGradient id="paint2_radial_67_228" cx="0" cy="0" r="1" gradientUnits="userSpaceOnUse" gradientTransform="translate(395.882 -0.758121) rotate(100.88) scale(279.161)">
<stop offset="0.390625" stop-color="#78C601"/>
<stop offset="1" stop-color="#487701"/>
</radialGradient>
<radialGradient id="paint3_radial_67_228" cx="0" cy="0" r="1" gradientUnits="userSpaceOnUse" gradientTransform="translate(395.5 -0.5) rotate(135) scale(279.661)">
<stop offset="0.390625" stop-color="#78C601"/>
<stop offset="1" stop-color="#487701"/>
</radialGradient>
<radialGradient id="paint4_radial_67_228" cx="0" cy="0" r="1" gradientUnits="userSpaceOnUse" gradientTransform="translate(395.501 -0.500286) rotate(145.88) scale(279.661)">
<stop offset="0.390625" stop-color="#78C601"/>
<stop offset="1" stop-color="#487701"/>
</radialGradient>
<radialGradient id="paint5_radial_67_228" cx="0" cy="0" r="1" gradientUnits="userSpaceOnUse" gradientTransform="translate(395.5 -0.500078) rotate(145.88) scale(139.537)">
<stop offset="0.390625" stop-color="#78C601"/>
<stop offset="1" stop-color="#487701"/>
</radialGradient>
<radialGradient id="paint6_radial_67_228" cx="0" cy="0" r="1" gradientUnits="userSpaceOnUse" gradientTransform="translate(395.5 -0.499006) rotate(158) scale(279.661)">
<stop offset="0.390625" stop-color="#78C601"/>
<stop offset="1" stop-color="#487701"/>
</radialGradient>
<radialGradient id="paint7_radial_67_228" cx="0" cy="0" r="1" gradientUnits="userSpaceOnUse" gradientTransform="translate(395.5 -0.498955) rotate(168.88) scale(279.661)">
<stop offset="0.390625" stop-color="#78C601"/>
<stop offset="1" stop-color="#487701"/>
</radialGradient>
<radialGradient id="paint8_radial_67_228" cx="0" cy="0" r="1" gradientUnits="userSpaceOnUse" gradientTransform="translate(395.498 -0.499792) rotate(-157) scale(279.661)">
<stop offset="0.390625" stop-color="#78C601"/>
<stop offset="1" stop-color="#487701"/>
</radialGradient>
<radialGradient id="paint9_radial_67_228" cx="0" cy="0" r="1" gradientUnits="userSpaceOnUse" gradientTransform="translate(395.498 -0.500164) rotate(-146.12) scale(279.661)">
<stop offset="0.390625" stop-color="#78C601"/>
<stop offset="1" stop-color="#487701"/>
</radialGradient>
</defs>
</svg>
