<svg width="552" height="104" viewBox="0 0 552 104" fill="none" xmlns="http://www.w3.org/2000/svg">
<g filter="url(#filter0_d_67_270)">
<path d="M314.779 -229.684C301.516 -265.527 250.821 -265.527 237.558 -229.684L207.242 -147.756C184.842 -87.2221 137.115 -39.4951 76.5818 -17.0957L-5.3465 13.2205C-41.189 26.4835 -41.189 77.1787 -5.34644 90.4417L76.5819 120.758C137.116 143.157 184.842 190.884 207.242 251.418L237.558 333.346C250.821 369.189 301.516 369.189 314.779 333.346L345.095 251.418C367.495 190.884 415.222 143.157 475.756 120.758L557.684 90.4416C593.526 77.1786 593.526 26.4835 557.684 13.2205L475.755 -17.0957C415.222 -39.4952 367.495 -87.2222 345.095 -147.756L314.779 -229.684Z" stroke="#C9E899" stroke-width="0.5" shape-rendering="crispEdges"/>
</g>
<g filter="url(#filter1_d_67_270)">
<path d="M320.087 -81.4572C316.935 -100.125 292.26 -104.798 282.501 -88.5747L260.057 -51.2642C243.455 -23.6656 215.625 -4.69732 183.867 0.664518L140.933 7.91316C122.265 11.065 117.593 35.7397 133.816 45.4988L171.126 67.943C198.725 84.545 217.693 112.376 223.055 144.133L230.304 187.067C233.456 205.735 258.13 210.407 267.889 194.184L290.334 156.874C306.936 129.275 334.766 110.307 366.524 104.945L409.457 97.6962C428.125 94.5444 432.798 69.8697 416.575 60.1107L379.264 37.6664C351.666 21.0644 332.697 -6.76611 327.336 -38.5239L320.087 -81.4572Z" stroke="#C9E899" stroke-width="0.5" shape-rendering="crispEdges"/>
</g>
<g filter="url(#filter2_d_67_270)">
<path d="M366.815 -216.475C360.567 -254.11 310.872 -263.662 291.117 -231.025L245.961 -156.424C212.597 -101.305 156.818 -63.5114 93.2572 -52.9595L7.23169 -38.6783C-30.403 -32.4305 -39.9551 17.2648 -7.31853 37.0197L67.2824 82.1756C122.402 115.54 160.195 171.319 170.747 234.88L185.028 320.905C191.276 358.54 240.971 368.092 260.726 335.455L305.882 260.855C339.246 205.735 395.026 167.942 458.586 157.39L544.612 143.109C582.247 136.861 591.799 87.1655 559.162 67.4105L484.561 22.2546C429.442 -11.1094 391.648 -66.8886 381.096 -130.45L366.815 -216.475Z" stroke="#C9E899" stroke-width="0.5" shape-rendering="crispEdges"/>
</g>
<g filter="url(#filter3_d_67_270)">
<path d="M501.867 -119.262C517.833 -153.986 481.986 -189.833 447.262 -173.867L367.892 -137.371C309.249 -110.405 241.751 -110.405 183.108 -137.371L103.738 -173.867C69.0144 -189.833 33.1669 -153.986 49.1334 -119.262L85.6292 -39.892C112.595 18.7515 112.595 86.2487 85.6292 144.892L49.1333 224.262C33.1669 258.986 69.0144 294.833 103.738 278.867L183.108 242.371C241.752 215.405 309.249 215.406 367.892 242.371L447.262 278.867C481.986 294.833 517.833 258.986 501.867 224.262L465.371 144.892C438.406 86.2486 438.406 18.7513 465.371 -39.8922L501.867 -119.262Z" stroke="#C9E899" stroke-width="0.5" shape-rendering="crispEdges"/>
</g>
<g filter="url(#filter4_d_67_270)">
<path d="M530.22 -73.4462C552.454 -104.532 524.017 -146.501 486.904 -137.376L402.072 -116.518C339.393 -101.107 273.109 -113.848 220.609 -151.398L149.555 -202.219C118.47 -224.453 76.4999 -196.017 85.625 -158.904L106.483 -74.0713C121.894 -11.3921 109.153 54.8918 71.6033 107.391L20.7818 178.446C-1.45202 209.531 26.9845 251.501 64.0976 242.375L148.93 221.517C211.609 206.106 277.893 218.847 330.392 256.397L401.447 307.219C432.532 329.452 474.502 301.016 465.377 263.903L444.519 179.071C429.107 116.391 441.848 50.1075 479.398 -2.39185L530.22 -73.4462Z" stroke="#C9E899" stroke-width="0.5" shape-rendering="crispEdges"/>
</g>
<g filter="url(#filter5_d_67_270)">
<path d="M402.491 -10.4141C413.517 -25.8297 399.415 -46.6428 381.01 -42.1176L338.683 -31.7104C307.374 -24.0123 274.264 -30.3765 248.039 -49.1335L212.586 -74.491C197.171 -85.517 176.358 -71.415 180.883 -53.0103L191.29 -10.683C198.988 20.6265 192.624 53.7365 173.867 79.9609L148.509 115.414C137.483 130.829 151.585 151.642 169.99 147.117L212.317 136.71C243.627 129.012 276.737 135.376 302.961 154.133L338.414 179.491C353.83 190.517 374.643 176.415 370.118 158.01L359.71 115.683C352.012 84.3731 358.377 51.2631 377.134 25.0387L402.491 -10.4141Z" stroke="#C9E899" stroke-width="0.5" shape-rendering="crispEdges"/>
</g>
<g filter="url(#filter6_d_67_270)">
<path d="M550.985 -17.1584C579.249 -42.8829 560.258 -89.8874 522.057 -88.7577L434.736 -86.1755C370.218 -84.2676 308.086 -110.641 264.641 -158.376L205.841 -222.983C180.116 -251.248 133.111 -232.257 134.241 -194.055L136.823 -106.735C138.731 -42.2169 112.358 19.9146 64.6224 63.3601L0.0154393 122.161C-28.2493 147.885 -9.25822 194.89 28.9435 193.76L116.264 191.178C180.782 189.27 242.914 215.643 286.359 263.379L345.159 327.986C370.884 356.25 417.888 337.259 416.759 299.058L414.177 211.737C412.269 147.219 438.642 85.0875 486.378 41.6421L550.985 -17.1584Z" stroke="#C9E899" stroke-width="0.5" shape-rendering="crispEdges"/>
</g>
<g filter="url(#filter7_d_67_270)">
<path d="M559.181 36.094C591.794 16.1672 582.016 -33.577 544.288 -39.6786L458.05 -53.6253C394.332 -63.93 338.295 -101.557 304.641 -156.635L259.093 -231.18C239.166 -263.792 189.422 -254.015 183.32 -216.287L169.374 -130.049C159.069 -66.3304 121.442 -10.294 66.3636 23.3599L-8.1811 68.9083C-40.7934 88.8351 -31.0163 138.579 6.71194 144.681L92.9503 158.628C156.669 168.932 212.705 206.559 246.359 261.638L291.907 336.182C311.834 368.795 361.578 359.017 367.68 321.289L381.627 235.051C391.931 171.333 429.558 115.296 484.637 81.6424L559.181 36.094Z" stroke="#C9E899" stroke-width="0.5" shape-rendering="crispEdges"/>
</g>
<g filter="url(#filter8_d_67_270)">
<path d="M519.551 198.041C557.728 199.837 577.536 153.171 549.724 126.957L486.153 67.0378C439.183 22.7659 413.899 -39.8165 416.932 -104.291L421.038 -191.553C422.834 -229.73 376.168 -249.538 349.954 -221.727L290.035 -158.156C245.763 -111.186 183.181 -85.9007 118.706 -88.9343L31.4439 -93.0401C-6.7322 -94.8363 -26.5407 -48.1704 1.2708 -21.9565L64.8418 37.9627C111.812 82.2346 137.097 144.817 134.063 209.292L129.957 296.554C128.161 334.73 174.827 354.539 201.041 326.727L260.96 263.156C305.232 216.186 367.814 190.901 432.289 193.935L519.551 198.041Z" stroke="#C9E899" stroke-width="0.5" shape-rendering="crispEdges"/>
</g>
<g filter="url(#filter9_d_67_270)">
<path d="M487.692 241.491C524.843 250.461 553.104 208.373 530.74 177.381L479.622 106.539C441.853 54.1972 428.836 -12.0329 443.985 -74.7759L464.489 -159.695C473.459 -196.845 431.371 -225.106 400.378 -202.743L329.537 -151.625C277.195 -113.856 210.964 -100.839 148.221 -115.988L63.3028 -136.491C26.152 -145.461 -2.109 -103.373 20.2544 -72.381L71.3724 -1.53946C109.141 50.8026 122.159 117.033 107.01 179.776L86.506 264.694C77.536 301.845 119.624 330.106 150.616 307.743L221.458 256.625C273.8 218.856 340.03 205.838 402.773 220.988L487.692 241.491Z" stroke="#C9E899" stroke-width="0.5" shape-rendering="crispEdges"/>
</g>
<defs>
<filter id="filter0_d_67_270" x="-48.4784" y="-272.816" width="649.294" height="649.294" filterUnits="userSpaceOnUse" color-interpolation-filters="sRGB">
<feFlood flood-opacity="0" result="BackgroundImageFix"/>
<feColorMatrix in="SourceAlpha" type="matrix" values="0 0 0 0 0 0 0 0 0 0 0 0 0 0 0 0 0 0 127 0" result="hardAlpha"/>
<feOffset/>
<feGaussianBlur stdDeviation="8"/>
<feComposite in2="hardAlpha" operator="out"/>
<feColorMatrix type="matrix" values="0 0 0 0 0.788235 0 0 0 0 0.909804 0 0 0 0 0.6 0 0 0 0.24 0"/>
<feBlend mode="normal" in2="BackgroundImageFix" result="effect1_dropShadow_67_270"/>
<feBlend mode="normal" in="SourceGraphic" in2="effect1_dropShadow_67_270" result="shape"/>
</filter>
<filter id="filter1_d_67_270" x="107.671" y="-114.72" width="335.049" height="335.049" filterUnits="userSpaceOnUse" color-interpolation-filters="sRGB">
<feFlood flood-opacity="0" result="BackgroundImageFix"/>
<feColorMatrix in="SourceAlpha" type="matrix" values="0 0 0 0 0 0 0 0 0 0 0 0 0 0 0 0 0 0 127 0" result="hardAlpha"/>
<feOffset/>
<feGaussianBlur stdDeviation="8"/>
<feComposite in2="hardAlpha" operator="out"/>
<feColorMatrix type="matrix" values="0 0 0 0 0.788235 0 0 0 0 0.909804 0 0 0 0 0.6 0 0 0 0.24 0"/>
<feBlend mode="normal" in2="BackgroundImageFix" result="effect1_dropShadow_67_270"/>
<feBlend mode="normal" in="SourceGraphic" in2="effect1_dropShadow_67_270" result="shape"/>
</filter>
<filter id="filter2_d_67_270" x="-43.4116" y="-267.118" width="638.667" height="638.667" filterUnits="userSpaceOnUse" color-interpolation-filters="sRGB">
<feFlood flood-opacity="0" result="BackgroundImageFix"/>
<feColorMatrix in="SourceAlpha" type="matrix" values="0 0 0 0 0 0 0 0 0 0 0 0 0 0 0 0 0 0 127 0" result="hardAlpha"/>
<feOffset/>
<feGaussianBlur stdDeviation="8"/>
<feComposite in2="hardAlpha" operator="out"/>
<feColorMatrix type="matrix" values="0 0 0 0 0.788235 0 0 0 0 0.909804 0 0 0 0 0.6 0 0 0 0.24 0"/>
<feBlend mode="normal" in2="BackgroundImageFix" result="effect1_dropShadow_67_270"/>
<feBlend mode="normal" in="SourceGraphic" in2="effect1_dropShadow_67_270" result="shape"/>
</filter>
<filter id="filter3_d_67_270" x="28.9715" y="-194.029" width="493.057" height="493.057" filterUnits="userSpaceOnUse" color-interpolation-filters="sRGB">
<feFlood flood-opacity="0" result="BackgroundImageFix"/>
<feColorMatrix in="SourceAlpha" type="matrix" values="0 0 0 0 0 0 0 0 0 0 0 0 0 0 0 0 0 0 127 0" result="hardAlpha"/>
<feOffset/>
<feGaussianBlur stdDeviation="8"/>
<feComposite in2="hardAlpha" operator="out"/>
<feColorMatrix type="matrix" values="0 0 0 0 0.788235 0 0 0 0 0.909804 0 0 0 0 0.6 0 0 0 0.24 0"/>
<feBlend mode="normal" in2="BackgroundImageFix" result="effect1_dropShadow_67_270"/>
<feBlend mode="normal" in="SourceGraphic" in2="effect1_dropShadow_67_270" result="shape"/>
</filter>
<filter id="filter4_d_67_270" x="-3.3042" y="-226.305" width="557.61" height="557.61" filterUnits="userSpaceOnUse" color-interpolation-filters="sRGB">
<feFlood flood-opacity="0" result="BackgroundImageFix"/>
<feColorMatrix in="SourceAlpha" type="matrix" values="0 0 0 0 0 0 0 0 0 0 0 0 0 0 0 0 0 0 127 0" result="hardAlpha"/>
<feOffset/>
<feGaussianBlur stdDeviation="8"/>
<feComposite in2="hardAlpha" operator="out"/>
<feColorMatrix type="matrix" values="0 0 0 0 0.788235 0 0 0 0 0.909804 0 0 0 0 0.6 0 0 0 0.24 0"/>
<feBlend mode="normal" in2="BackgroundImageFix" result="effect1_dropShadow_67_270"/>
<feBlend mode="normal" in="SourceGraphic" in2="effect1_dropShadow_67_270" result="shape"/>
</filter>
<filter id="filter5_d_67_270" x="128.373" y="-94.6274" width="294.255" height="294.255" filterUnits="userSpaceOnUse" color-interpolation-filters="sRGB">
<feFlood flood-opacity="0" result="BackgroundImageFix"/>
<feColorMatrix in="SourceAlpha" type="matrix" values="0 0 0 0 0 0 0 0 0 0 0 0 0 0 0 0 0 0 127 0" result="hardAlpha"/>
<feOffset/>
<feGaussianBlur stdDeviation="8"/>
<feComposite in2="hardAlpha" operator="out"/>
<feColorMatrix type="matrix" values="0 0 0 0 0.788235 0 0 0 0 0.909804 0 0 0 0 0.6 0 0 0 0.24 0"/>
<feBlend mode="normal" in2="BackgroundImageFix" result="effect1_dropShadow_67_270"/>
<feBlend mode="normal" in="SourceGraphic" in2="effect1_dropShadow_67_270" result="shape"/>
</filter>
<filter id="filter6_d_67_270" x="-29.7869" y="-252.786" width="610.574" height="610.574" filterUnits="userSpaceOnUse" color-interpolation-filters="sRGB">
<feFlood flood-opacity="0" result="BackgroundImageFix"/>
<feColorMatrix in="SourceAlpha" type="matrix" values="0 0 0 0 0 0 0 0 0 0 0 0 0 0 0 0 0 0 127 0" result="hardAlpha"/>
<feOffset/>
<feGaussianBlur stdDeviation="8"/>
<feComposite in2="hardAlpha" operator="out"/>
<feColorMatrix type="matrix" values="0 0 0 0 0.788235 0 0 0 0 0.909804 0 0 0 0 0.6 0 0 0 0.24 0"/>
<feBlend mode="normal" in2="BackgroundImageFix" result="effect1_dropShadow_67_270"/>
<feBlend mode="normal" in="SourceGraphic" in2="effect1_dropShadow_67_270" result="shape"/>
</filter>
<filter id="filter7_d_67_270" x="-44.1641" y="-267.163" width="639.328" height="639.328" filterUnits="userSpaceOnUse" color-interpolation-filters="sRGB">
<feFlood flood-opacity="0" result="BackgroundImageFix"/>
<feColorMatrix in="SourceAlpha" type="matrix" values="0 0 0 0 0 0 0 0 0 0 0 0 0 0 0 0 0 0 127 0" result="hardAlpha"/>
<feOffset/>
<feGaussianBlur stdDeviation="8"/>
<feComposite in2="hardAlpha" operator="out"/>
<feColorMatrix type="matrix" values="0 0 0 0 0.788235 0 0 0 0 0.909804 0 0 0 0 0.6 0 0 0 0.24 0"/>
<feBlend mode="normal" in2="BackgroundImageFix" result="effect1_dropShadow_67_270"/>
<feBlend mode="normal" in="SourceGraphic" in2="effect1_dropShadow_67_270" result="shape"/>
</filter>
<filter id="filter8_d_67_270" x="-28.0107" y="-251.008" width="607.017" height="607.017" filterUnits="userSpaceOnUse" color-interpolation-filters="sRGB">
<feFlood flood-opacity="0" result="BackgroundImageFix"/>
<feColorMatrix in="SourceAlpha" type="matrix" values="0 0 0 0 0 0 0 0 0 0 0 0 0 0 0 0 0 0 127 0" result="hardAlpha"/>
<feOffset/>
<feGaussianBlur stdDeviation="8"/>
<feComposite in2="hardAlpha" operator="out"/>
<feColorMatrix type="matrix" values="0 0 0 0 0.788235 0 0 0 0 0.909804 0 0 0 0 0.6 0 0 0 0.24 0"/>
<feBlend mode="normal" in2="BackgroundImageFix" result="effect1_dropShadow_67_270"/>
<feBlend mode="normal" in="SourceGraphic" in2="effect1_dropShadow_67_270" result="shape"/>
</filter>
<filter id="filter9_d_67_270" x="-3.93122" y="-226.929" width="558.857" height="558.857" filterUnits="userSpaceOnUse" color-interpolation-filters="sRGB">
<feFlood flood-opacity="0" result="BackgroundImageFix"/>
<feColorMatrix in="SourceAlpha" type="matrix" values="0 0 0 0 0 0 0 0 0 0 0 0 0 0 0 0 0 0 127 0" result="hardAlpha"/>
<feOffset/>
<feGaussianBlur stdDeviation="8"/>
<feComposite in2="hardAlpha" operator="out"/>
<feColorMatrix type="matrix" values="0 0 0 0 0.788235 0 0 0 0 0.909804 0 0 0 0 0.6 0 0 0 0.24 0"/>
<feBlend mode="normal" in2="BackgroundImageFix" result="effect1_dropShadow_67_270"/>
<feBlend mode="normal" in="SourceGraphic" in2="effect1_dropShadow_67_270" result="shape"/>
</filter>
</defs>
</svg>
