<svg width="105" height="24" viewBox="0 0 105 24" fill="none" xmlns="http://www.w3.org/2000/svg">
<path d="M12 2C6.48 2 2 6.48 2 12C2 17.52 6.48 22 12 22C17.52 22 22 17.52 22 12C22 6.48 17.52 2 12 2ZM15.42 16.58C15.27 16.79 15.04 16.89 14.81 16.89C14.66 16.89 14.51 16.84 14.37 16.75C12.83 15.65 10.86 15.41 9.10001 16.1C8.72001 16.25 8.28 16.06 8.13 15.68C7.98 15.29 8.17 14.86 8.55 14.71C10.79 13.82 13.29 14.13 15.24 15.53C15.59 15.78 15.66 16.25 15.42 16.58ZM16.52 13.79C16.37 14 16.14 14.1 15.91 14.1C15.76 14.1 15.61 14.05 15.47 13.96C13.35 12.44 10.64 12.11 8.21001 13.07C7.83001 13.22 7.39001 13.03 7.24001 12.65C7.09001 12.26 7.28 11.83 7.66 11.68C10.56 10.53 13.81 10.93 16.34 12.75C16.68 12.99 16.76 13.46 16.52 13.79ZM18.09 11.11C17.94 11.32 17.71 11.42 17.48 11.42C17.33 11.42 17.18 11.37 17.04 11.28C14.06 9.14 10.24 8.67 6.84 10.03C6.45 10.18 6.02 9.98999 5.87 9.60999C5.72 9.22999 5.90999 8.79001 6.28999 8.64001C10.17 7.10001 14.52 7.63001 17.92 10.07C18.26 10.3 18.34 10.77 18.09 11.11Z" fill="#FAFFF2"/>
<path d="M38.704 17.304C37.648 17.304 36.7413 17.1173 35.984 16.744C35.2267 16.3707 34.608 15.8853 34.128 15.288C33.6587 14.6907 33.312 14.04 33.088 13.336C32.864 12.632 32.752 11.9547 32.752 11.304V10.952C32.752 10.2267 32.864 9.512 33.088 8.808C33.3227 8.104 33.68 7.464 34.16 6.888C34.64 6.312 35.248 5.85333 35.984 5.512C36.7307 5.16 37.6107 4.984 38.624 4.984C39.68 4.984 40.5973 5.176 41.376 5.56C42.1653 5.93333 42.7947 6.46667 43.264 7.16C43.7333 7.84267 44.016 8.64267 44.112 9.56H41.824C41.7387 9.02667 41.5467 8.57867 41.248 8.216C40.96 7.84267 40.592 7.56533 40.144 7.384C39.696 7.192 39.1893 7.096 38.624 7.096C38.048 7.096 37.536 7.19733 37.088 7.4C36.64 7.592 36.2667 7.86933 35.968 8.232C35.6693 8.59467 35.44 9.02133 35.28 9.512C35.1307 10.0027 35.056 10.5467 35.056 11.144C35.056 11.72 35.1307 12.2533 35.28 12.744C35.44 13.2347 35.6747 13.6667 35.984 14.04C36.2933 14.4027 36.672 14.6853 37.12 14.888C37.5787 15.0907 38.1067 15.192 38.704 15.192C39.5787 15.192 40.3147 14.9787 40.912 14.552C41.52 14.1147 41.888 13.5067 42.016 12.728H44.304C44.1973 13.56 43.9147 14.3227 43.456 15.016C42.9973 15.7093 42.368 16.264 41.568 16.68C40.768 17.096 39.8133 17.304 38.704 17.304ZM49.0052 17.272C48.0026 17.272 47.2239 16.9413 46.6693 16.28C46.1253 15.6187 45.8533 14.6373 45.8533 13.336V8.296H48.0773V13.528C48.0773 14.0613 48.2266 14.488 48.5253 14.808C48.8239 15.1173 49.2293 15.272 49.7413 15.272C50.2533 15.272 50.6693 15.1067 50.9893 14.776C51.3199 14.4453 51.4853 13.9973 51.4853 13.432V8.296H53.7093V17H51.9493V13.304H52.1253C52.1253 14.1787 52.0133 14.9093 51.7893 15.496C51.5653 16.0827 51.2293 16.5253 50.7813 16.824C50.3333 17.1227 49.7733 17.272 49.1013 17.272H49.0052ZM56.376 17V5.32H58.6V17H56.376ZM55.288 6.984V5.32H58.6V6.984H55.288ZM64.915 17.112C64.115 17.112 63.4537 17.0107 62.931 16.808C62.419 16.5947 62.035 16.2427 61.779 15.752C61.523 15.2507 61.395 14.5787 61.395 13.736L61.411 5.864H63.491L63.475 13.88C63.475 14.3067 63.587 14.6373 63.811 14.872C64.0457 15.096 64.3763 15.208 64.803 15.208H66.163V17.112H64.915ZM60.019 9.944V8.312H66.163V9.944H60.019ZM70.9896 17.272C69.987 17.272 69.2083 16.9413 68.6536 16.28C68.1096 15.6187 67.8376 14.6373 67.8376 13.336V8.296H70.0616V13.528C70.0616 14.0613 70.211 14.488 70.5096 14.808C70.8083 15.1173 71.2136 15.272 71.7256 15.272C72.2376 15.272 72.6536 15.1067 72.9736 14.776C73.3043 14.4453 73.4696 13.9973 73.4696 13.432V8.296H75.6936V17H73.9336V13.304H74.1096C74.1096 14.1787 73.9976 14.9093 73.7736 15.496C73.5496 16.0827 73.2136 16.5253 72.7656 16.824C72.3176 17.1227 71.7576 17.272 71.0856 17.272H70.9896ZM78.2484 17V8.312H80.0084V11.992H79.9604C79.9604 10.744 80.227 9.8 80.7604 9.16C81.2937 8.52 82.0777 8.2 83.1124 8.2H83.4324V10.136H82.8244C82.0777 10.136 81.4964 10.3387 81.0804 10.744C80.675 11.1387 80.4724 11.7147 80.4724 12.472V17H78.2484ZM88.7458 17.304C87.9991 17.304 87.3431 17.176 86.7778 16.92C86.2231 16.664 85.7591 16.3227 85.3858 15.896C85.0231 15.4587 84.7458 14.9733 84.5538 14.44C84.3724 13.9067 84.2818 13.3627 84.2818 12.808V12.504C84.2818 11.928 84.3724 11.3733 84.5538 10.84C84.7458 10.296 85.0231 9.816 85.3858 9.4C85.7591 8.97333 86.2178 8.63733 86.7618 8.392C87.3058 8.136 87.9351 8.008 88.6498 8.008C89.5884 8.008 90.3724 8.216 91.0018 8.632C91.6418 9.03733 92.1218 9.576 92.4418 10.248C92.7618 10.9093 92.9218 11.624 92.9218 12.392V13.192H85.2258V11.832H91.5298L90.8418 12.504C90.8418 11.9493 90.7618 11.4747 90.6018 11.08C90.4418 10.6853 90.1964 10.3813 89.8658 10.168C89.5458 9.95467 89.1404 9.848 88.6498 9.848C88.1591 9.848 87.7431 9.96 87.4018 10.184C87.0604 10.408 86.7991 10.7333 86.6178 11.16C86.4471 11.576 86.3618 12.0773 86.3618 12.664C86.3618 13.208 86.4471 13.6933 86.6178 14.12C86.7884 14.536 87.0498 14.8667 87.4018 15.112C87.7538 15.3467 88.2018 15.464 88.7458 15.464C89.2898 15.464 89.7324 15.3573 90.0738 15.144C90.4151 14.92 90.6338 14.648 90.7298 14.328H92.7778C92.6498 14.9253 92.4044 15.448 92.0417 15.896C91.6791 16.344 91.2151 16.6907 90.6498 16.936C90.0951 17.1813 89.4604 17.304 88.7458 17.304ZM98.3796 17.288C97.7716 17.288 97.2116 17.176 96.6996 16.952C96.1876 16.728 95.745 16.4133 95.3716 16.008C94.9983 15.6027 94.7103 15.1333 94.5076 14.6C94.305 14.056 94.2036 13.4693 94.2036 12.84V12.504C94.2036 11.8853 94.2996 11.304 94.4916 10.76C94.6943 10.216 94.9716 9.74133 95.3236 9.336C95.6863 8.93067 96.1183 8.616 96.6196 8.392C97.1316 8.15733 97.697 8.04 98.3156 8.04C98.9983 8.04 99.5956 8.18933 100.108 8.488C100.63 8.776 101.046 9.21333 101.356 9.8C101.665 10.3867 101.836 11.1227 101.868 12.008L101.212 11.24V5.32H103.436V17H101.676V13.304H102.06C102.028 14.1893 101.846 14.9307 101.516 15.528C101.185 16.1147 100.748 16.5573 100.204 16.856C99.6703 17.144 99.0623 17.288 98.3796 17.288ZM98.8756 15.416C99.313 15.416 99.713 15.32 100.076 15.128C100.438 14.9253 100.726 14.6373 100.94 14.264C101.164 13.88 101.276 13.432 101.276 12.92V12.28C101.276 11.768 101.164 11.3413 100.94 11C100.716 10.648 100.422 10.3813 100.06 10.2C99.697 10.008 99.3023 9.912 98.8756 9.912C98.3956 9.912 97.969 10.0293 97.5956 10.264C97.233 10.488 96.945 10.808 96.7316 11.224C96.529 11.64 96.4276 12.1253 96.4276 12.68C96.4276 13.2347 96.5343 13.72 96.7476 14.136C96.961 14.5413 97.249 14.856 97.6116 15.08C97.985 15.304 98.4063 15.416 98.8756 15.416Z" fill="#FAFFF2"/>
</svg>
